# Blender 3.3.0
# www.blender.org
mtllib bun.mtl
o obj_0
v 4.057446 1.671052 0.000000
v 4.231827 1.164142 0.000000
v 3.715392 1.123732 0.000000
v 3.635436 0.621897 0.000000
v 4.228794 0.480273 0.000000
v 4.083057 0.019167 0.000000
v 1.134118 3.682418 0.000001
v 0.276443 2.510630 0.000000
v 0.950800 3.937512 0.000001
v 1.433098 3.811786 0.000001
v 0.775481 3.682550 0.000001
v -0.024780 2.688830 0.000000
v 2.753538 2.775842 0.000000
v 0.380962 2.509983 0.000000
v 2.936732 2.923784 0.000000
v 3.604812 1.758005 0.000000
v 3.203375 2.394973 0.000000
v 3.771582 2.130244 0.000000
v 0.412639 3.767116 0.000001
v 1.353152 3.598334 2.235088
v 1.438999 3.222608 2.235088
v 1.552503 3.321469 2.235088
v 1.521026 3.505661 0.000001
v 1.500376 3.382065 0.000001
v 1.315818 3.510342 2.235088
v 1.725869 3.043506 0.000000
v 3.546273 1.883437 2.235087
v 2.405037 1.318490 2.235087
v 2.277407 1.646650 2.235087
v 1.124959 3.578043 2.235088
v 1.951204 1.773971 2.235087
v 1.914323 1.584355 2.235087
v 1.965285 1.472762 2.235087
v 1.934106 1.362747 2.235087
v 1.164889 3.583284 0.000001
v 1.131828 3.563160 0.000001
v 0.990257 3.531928 0.000001
v 1.031866 3.254989 2.235088
v 1.022643 3.282327 0.000001
v -0.326498 2.712698 0.000000
v -0.325996 2.651863 0.000000
v 1.232977 3.141975 0.000001
v 1.531865 3.083858 0.000001
v -0.885509 2.740801 0.000000
v 1.714762 2.584368 0.000000
v 1.101279 2.855027 0.000000
v 1.227295 2.687845 0.000000
v 0.906522 3.555650 0.000001
v 0.818725 3.405262 0.000001
v 0.744277 3.538031 0.000001
v -1.352037 2.293799 0.000000
v -1.468540 2.520223 0.000000
v 0.499524 3.204742 0.000001
v 1.004229 3.524421 2.235088
v -1.671158 1.784739 0.000000
v -1.830691 1.949986 0.000000
v 1.720076 3.052593 2.235088
v -0.087307 1.602888 2.235087
v -0.244351 1.591967 2.235087
v -0.284050 1.668694 2.235087
v -0.064241 1.770852 2.235087
v 1.732414 2.716203 2.235088
v -0.044127 1.337842 2.235087
v 0.291410 3.441747 0.000001
v 0.017479 1.487795 2.235087
v 0.541999 3.445837 0.000001
v -0.430501 1.478371 2.235087
v -0.295530 1.468606 2.235087
v 0.676008 3.107261 0.000001
v 0.796196 2.977007 0.000000
v 0.437174 2.692209 0.000000
v 0.241050 3.054971 0.000000
v 0.288923 2.874935 0.000000
v -0.178057 2.757345 0.000000
v 1.677266 2.606755 0.000000
v 1.062788 2.416020 0.000000
v 2.306654 1.062836 2.235087
v 0.575352 2.649942 0.000000
v 1.846858 1.312816 2.235087
v 2.125562 0.911206 2.235087
v 1.883232 1.773565 0.000000
v 2.281663 1.649776 0.000000
v 0.843944 -0.000235 -0.000000
v 1.916217 1.584582 0.000000
v 1.909758 0.870229 2.235087
v 1.963319 1.476509 0.000000
v 3.456194 0.205803 2.235087
v 2.403093 1.277281 0.000000
v 2.261559 1.008955 0.000000
v 1.924709 1.342624 0.000000
v 1.989764 0.868333 0.000000
v 3.400357 0.134588 0.000000
v 1.730478 1.599580 0.000000
v 1.612933 2.866625 2.235088
v 1.551069 1.551656 0.000000
v 1.245306 3.091370 2.235088
v 1.658151 1.431827 0.000000
v 1.218470 2.665688 2.235088
v 1.101208 2.825609 2.235088
v 0.703754 3.664917 2.235088
v 0.905543 3.554633 2.235088
v -0.251517 1.328688 2.235087
v 0.775708 3.539050 2.235088
v 0.732346 3.506970 2.235088
v -0.445749 1.204114 2.235087
v -0.296388 0.979124 2.235087
v -1.751877 0.753495 2.235087
v -1.774276 1.320140 2.235087
v -1.699830 1.689634 2.235087
v -0.098587 0.875986 2.235087
v -1.735288 0.116495 2.235087
v -1.500832 0.176097 2.235087
v -1.999007 1.333873 2.235087
v -1.890867 1.805336 2.235087
v -1.989975 0.828372 2.235087
v 1.759825 1.317801 0.000000
v 1.512826 1.211302 0.000000
v 1.703697 0.942818 0.000000
v 0.010301 1.500019 0.000000
v -0.022463 1.351583 0.000000
v 0.090079 1.769172 0.000000
v 0.386436 1.564163 0.000000
v 0.419991 1.195334 0.000000
v 0.229990 0.927716 0.000000
v 1.544698 0.661358 0.000000
v 1.569038 0.474269 0.000000
v 1.327302 0.128562 0.000000
v 1.050883 -0.011599 -0.000000
v 0.373413 0.650312 0.000000
v -0.132149 0.881273 0.000000
v 0.617761 0.132765 0.000000
v 0.414324 0.387411 0.000000
v 3.777608 -0.478806 -0.000000
v 2.901315 -0.404401 -0.000000
v 3.209600 -0.998789 -0.000000
v 2.640883 -1.301471 -0.000000
v 2.168379 -0.806580 -0.000000
v 1.981094 -1.505150 -0.000000
v 1.459145 -0.992628 -0.000000
v 0.602725 -1.020559 -0.000000
v -0.160090 -0.835381 -0.000000
v 1.176755 -1.568939 -0.000000
v 0.558526 -1.496063 -0.000000
v -0.018587 -1.323140 -0.000000
v -0.929857 2.971859 0.000000
v -0.896772 2.994679 2.235088
v -0.924266 2.717479 2.235088
v 0.830350 3.223272 2.235088
v 0.693972 3.168795 2.235088
v 0.542765 3.335753 2.235088
v 0.536946 3.441536 2.235088
v 0.400871 3.012871 2.235088
v 0.359390 3.197796 2.235088
v 0.740931 2.863211 2.235088
v 0.458941 2.715671 2.235088
v 0.118450 2.945592 2.235088
v -0.305608 2.644337 2.235088
v 1.693643 2.573921 2.235088
v -0.097663 1.610565 0.000000
v 0.100338 2.733795 2.235088
v -0.211835 1.724155 0.000000
v -0.332610 2.702123 2.235088
v -0.270584 1.570215 0.000000
v -0.279981 1.373421 0.000000
v -0.183919 1.313894 0.000000
v 1.064818 2.415636 2.235088
v 0.414551 2.516521 2.235088
v 0.276878 2.514710 2.235088
v -0.455121 1.434830 0.000000
v -0.386547 1.073003 0.000000
v -1.772646 1.324802 0.000000
v -1.525543 0.205844 0.000000
v -1.758899 0.790018 0.000000
v -1.881817 0.441966 0.000000
v -2.008614 0.998232 0.000000
v -1.975051 1.494631 0.000000
v -0.939132 -0.434881 -0.000000
v -0.638567 -1.006973 -0.000000
v -1.155868 -0.559405 -0.000000
v -1.620946 -0.044195 -0.000000
v 3.696906 1.365154 2.235087
v 3.921213 1.934894 2.235087
v 3.698342 0.879226 2.235087
v 4.208105 1.276762 2.235087
v 4.240079 0.503461 2.235087
v 1.065531 3.692393 2.235088
v 0.995118 3.928534 2.235088
v 0.534843 3.836528 2.235088
v 1.388841 3.836322 2.235088
v 2.843191 2.721359 2.235088
v 3.254619 2.327186 2.235088
v 3.038419 2.859277 2.235088
v 1.778187 1.610163 2.235087
v 1.701486 1.694501 2.235087
v 1.687856 1.554249 2.235087
v -1.489410 2.119142 2.235087
v -1.505697 2.486361 2.235088
v 1.665796 1.416973 2.235087
v 1.499001 1.430524 2.235087
v 1.729094 1.332760 2.235087
v 1.598623 1.035672 2.235087
v 0.150131 1.746497 2.235087
v 0.372958 1.574932 2.235087
v 0.432981 1.273310 2.235087
v 0.340552 1.036175 2.235087
v 0.176629 0.913558 2.235087
v 1.576677 0.608645 2.235087
v 1.509533 0.665554 2.235087
v 1.205805 0.041570 2.235087
v 1.527738 0.374917 2.235087
v 0.461444 0.664745 2.235087
v 0.350541 0.593551 2.235087
v 0.843653 -0.012359 2.235087
v 0.499829 0.253960 2.235087
v -0.250377 -1.223641 2.235087
v 4.013369 -0.124561 2.235087
v 2.982711 -0.326445 2.235087
v 2.994325 -1.128984 2.235087
v 3.591636 -0.687288 2.235087
v -0.141667 -0.854201 2.235087
v 1.704349 -0.954779 2.235087
v 2.476211 -0.667087 2.235087
v 2.378047 -1.402917 2.235087
v -1.044805 -0.347642 2.235087
v -0.956510 -0.764865 2.235087
v 1.703976 -1.540714 2.235087
v 0.807770 -1.030196 2.235087
v 1.078260 -1.565211 2.235087
v 0.442184 -1.472437 2.235087
vn -0.0000 -0.0000 -1.0000
vn -0.9747 0.2236 0.0056
vn -0.9415 -0.3368 0.0127
vn -0.9532 0.3022 -0.0061
vn -0.9621 0.2727 0.0016
vn 0.9320 0.3625 0.0023
vn 0.3636 0.9316 0.0020
vn -0.9096 -0.4154 -0.0008
vn -0.7231 0.6908 -0.0059
vn 0.9985 0.0549 0.0024
vn -0.7923 0.6101 0.0030
vn 0.8428 -0.5382 -0.0090
vn 0.9986 -0.0525 -0.0095
vn 0.9333 -0.3591 0.0058
vn -0.0000 -0.0000 1.0000
vn 0.1865 -0.9824 0.0075
vn -0.1863 -0.9825 -0.0003
vn 0.9539 0.3001 -0.0061
vn 0.6420 -0.7667 0.0055
vn 0.4595 -0.8881 -0.0109
vn 0.9507 0.3099 -0.0065
vn 0.9155 -0.4023 0.0059
vn -0.9167 -0.3995 0.0001
vn 0.2967 0.9549 -0.0092
vn -0.9608 0.2771 0.0013
vn 0.2927 0.9562 0.0006
vn -0.8331 -0.5530 0.0104
vn -0.6018 -0.7986 -0.0093
vn 0.5267 0.8500 0.0103
vn -0.9984 0.0555 0.0099
vn 0.9992 0.0395 -0.0025
vn 0.9997 0.0257 0.0008
vn 0.9803 -0.1975 0.0042
vn 0.9765 -0.2155 0.0003
vn 0.9993 0.0367 0.0024
vn -0.9765 0.2155 0.0043
vn 0.1129 0.9936 0.0070
vn 0.6101 0.7924 -0.0001
vn 0.9808 0.1952 0.0050
vn 0.8153 -0.5789 -0.0122
vn -0.4214 0.9068 0.0089
vn -0.1475 0.9890 -0.0109
vn -0.7394 -0.6732 0.0011
vn -0.5401 0.8414 0.0158
vn -0.7925 0.6098 -0.0031
vn 0.9236 -0.3832 -0.0071
vn 0.0694 -0.9976 -0.0037
vn -0.0441 0.9990 -0.0079
vn -0.2273 0.9738 0.0038
vn 0.5030 -0.8643 -0.0065
vn -0.9824 -0.1862 -0.0151
vn -0.4750 0.8799 -0.0111
vn 0.4454 -0.8953 0.0072
vn 0.8520 -0.5235 -0.0018
vn -0.8877 0.4604 -0.0055
vn 0.7281 -0.6854 0.0115
vn -0.7653 0.6436 -0.0088
vn 0.8845 -0.4665 -0.0066
vn -0.4967 0.8679 -0.0057
vn 0.2272 -0.9738 0.0068
vn -0.7154 -0.6987 -0.0015
vn -0.2520 -0.9677 -0.0082
vn -0.9006 0.4345 0.0087
vn 0.9988 -0.0477 0.0090
vn -0.5097 0.8604 0.0011
vn -0.6408 0.7677 0.0016
vn -0.9250 0.3800 -0.0066
vn 0.6465 0.7628 0.0087
vn 0.9787 -0.2049 0.0090
vn 0.1272 -0.9919 -0.0043
vn -0.5069 -0.8620 -0.0047
vn -0.4155 -0.9096 0.0065
vn -0.7813 -0.6242 -0.0074
vn 0.5843 -0.8115 -0.0064
vn -0.7934 0.6086 0.0145
vn -0.4623 -0.8867 0.0048
vn 0.9171 0.3987 -0.0048
vn 0.9286 0.3710 0.0031
vn -0.8811 -0.4728 -0.0111
vn -0.9977 0.0675 -0.0058
vn -0.9998 -0.0179 0.0070
vn -0.9750 -0.2222 -0.0088
vn 0.6237 0.7816 0.0066
vn -0.5947 0.8039 0.0080
vn -0.5448 -0.8385 0.0133
vn -0.4543 -0.8908 -0.0075
vn 0.4572 0.8894 0.0037
vn 0.4892 0.8721 -0.0109
vn -0.7493 -0.6621 0.0093
vn -0.7423 -0.6701 0.0046
vn 0.3343 0.9424 0.0082
vn -0.6543 -0.7562 -0.0112
vn 0.7542 0.6567 0.0004
vn 0.7377 0.6751 0.0085
vn 0.5143 0.8576 -0.0067
vn 0.9182 -0.3959 0.0095
vn -0.5554 0.8314 -0.0158
vn -0.9204 -0.3910 -0.0006
vn -0.9215 -0.3885 -0.0009
vn 0.9848 -0.1735 -0.0089
vn -0.7494 -0.6621 0.0021
vn -0.7677 -0.6407 0.0079
vn 0.9853 0.1705 0.0088
vn 0.9873 -0.1587 -0.0044
vn 0.8722 0.4891 -0.0125
vn 0.7464 0.6655 0.0058
vn -0.8083 0.5888 -0.0007
vn -0.8149 -0.5794 -0.0142
vn -0.3032 0.9529 0.0090
vn 0.9705 -0.2410 0.0117
vn 0.5263 -0.8503 -0.0072
vn -0.8667 0.4987 0.0032
vn 0.8489 0.5285 -0.0106
vn -0.9695 -0.2446 0.0180
vn 0.1670 0.9860 -0.0043
vn -0.5199 0.8542 -0.0073
vn -0.5790 0.8153 0.0081
vn 0.8737 0.4864 0.0062
vn 0.6804 -0.7327 0.0111
vn -0.9602 -0.2791 -0.0095
vn 0.9991 0.0413 0.0085
vn -0.9851 -0.1717 0.0104
vn 0.9167 0.3996 0.0087
vn -1.0000 -0.0030 -0.0080
vn 1.0000 -0.0044 -0.0050
vn -0.9409 0.3383 -0.0125
vn 0.9406 -0.3395 0.0075
vn 0.9456 0.3253 -0.0064
vn 0.9648 -0.2629 0.0079
vn 0.9535 -0.3014 -0.0017
vn -0.9875 0.1573 0.0097
vn -0.5126 -0.8586 -0.0089
vn -0.9962 0.0873 0.0011
vn -0.3108 -0.9505 -0.0053
vn -0.1960 0.9806 0.0078
vn -0.9565 -0.2915 0.0064
vn 0.2280 0.9737 -0.0006
vn -0.9640 -0.2658 0.0032
vn 0.2522 0.9676 -0.0056
vn -0.0004 -1.0000 0.0045
vn -0.3018 0.9533 -0.0131
vn 0.0757 -0.9971 -0.0054
vn -1.0000 -0.0082 -0.0028
vn -0.8357 -0.5492 0.0025
vn 0.7231 0.6906 0.0119
vn 0.2726 0.9621 0.0015
vn 0.8490 0.5284 -0.0035
vn -0.9835 -0.1810 0.0018
vn 0.9999 -0.0125 -0.0058
vn 0.9997 -0.0242 -0.0065
vn -0.8984 -0.4390 -0.0101
vn 0.8487 0.5289 -0.0000
vn -0.2880 0.9576 0.0037
vn 0.8555 -0.5178 -0.0009
vn -0.9872 -0.1594 -0.0021
vn -0.9936 0.1128 -0.0037
vn -0.9877 0.1565 0.0036
vn 0.9980 -0.0629 0.0033
vn -0.9961 0.0884 0.0009
vn 0.8287 -0.5596 -0.0080
vn 0.8323 0.5543 -0.0044
vn 0.7270 -0.6866 -0.0090
vn 0.8980 -0.4399 -0.0072
vn -0.8441 0.5361 -0.0059
vn -0.8704 0.4923 0.0084
vn 0.6918 -0.7220 0.0045
vn -0.0805 -0.9967 0.0064
vn 0.8472 -0.5311 0.0106
vn -0.5069 0.8620 -0.0013
vn 0.5117 -0.8592 -0.0001
vn -0.7488 0.6628 -0.0011
vn -0.1489 0.9888 0.0080
vn 0.5102 -0.8600 -0.0113
vn 0.7994 0.6008 0.0013
vn -0.6425 0.7663 0.0009
vn -0.9936 0.1116 -0.0171
vn -0.7411 0.6714 0.0002
vn 0.9317 -0.3632 0.0073
vn 0.9958 0.0906 -0.0089
vn -0.9060 -0.4233 0.0068
vn 0.5689 0.8224 -0.0069
vn 0.5990 -0.8007 0.0092
vn -0.4694 -0.8828 0.0146
vn 0.2152 -0.9765 0.0076
vn 0.1218 -0.9925 -0.0045
vn 0.9916 0.1290 -0.0111
vn -0.0094 0.9999 -0.0061
vn -0.0062 -1.0000 0.0030
vn 0.4522 -0.8918 -0.0101
vn 0.0132 -0.9999 0.0018
vn 0.7193 -0.6946 0.0121
vn -0.5072 -0.8618 -0.0024
vn 0.8195 -0.5730 -0.0103
vn -0.0008 1.0000 -0.0019
vn -0.9880 -0.1537 -0.0140
vn 0.1353 -0.9908 -0.0030
vn -0.6918 -0.7221 -0.0060
vn -0.6462 -0.7632 0.0073
vn -0.8460 -0.5332 0.0078
vn 0.6889 0.7248 -0.0104
vn 0.5085 0.8611 0.0006
vn 0.5096 0.8604 0.0016
vn -0.5095 -0.8605 -0.0005
vn -0.6123 -0.7905 0.0106
vn -0.9154 -0.4024 0.0110
vn 0.8002 -0.5997 0.0106
vn 0.8524 -0.5228 -0.0070
vn -0.7338 0.6794 -0.0033
vn -0.3492 0.9370 -0.0104
vn 0.2003 -0.9797 0.0092
vn -0.7471 0.6647 0.0040
vn -0.5580 0.8298 -0.0086
vn 0.5945 -0.8040 0.0104
vn 0.4698 -0.8827 -0.0062
vn 0.4062 -0.9138 0.0063
vn 0.6752 -0.7375 -0.0126
vn -0.4810 0.8766 0.0115
vn 0.2950 -0.9555 -0.0087
vn 0.1822 0.9832 -0.0125
vn -0.3381 -0.9411 0.0068
vn -0.0548 -0.9985 -0.0054
vn 0.1473 -0.9890 0.0133
vn 0.0791 -0.9969 -0.0061
vn -0.0838 0.9965 -0.0077
vn 0.0391 -0.9992 0.0034
vn -0.1443 -0.9895 0.0029
vn 0.2359 0.9718 0.0062
vn -0.2870 -0.9579 -0.0048
vn -0.0326 0.9994 0.0073
vn -0.1171 -0.9931 -0.0035
vn -0.2537 0.9672 0.0115
s 0
usemtl color_3356795
f 1//1 16//1 18//1
f 3//1 16//1 1//1
f 2//1 3//1 1//1
f 2//1 4//1 3//1
f 6//1 4//1 5//1
f 2//1 5//1 4//1
f 10//1 7//1 9//1
f 9//1 7//1 11//1
f 9//1 11//1 19//1
f 15//1 23//1 10//1
f 23//1 15//1 13//1
f 17//1 13//1 15//1
f 15//1 18//1 17//1
f 16//1 17//1 18//1
f 26//1 43//1 24//1
f 7//1 10//1 23//1
f 43//1 36//1 24//1
f 35//1 24//1 36//1
f 42//1 39//1 37//1
f 43//1 26//1 45//1
f 39//1 42//1 46//1
f 42//1 47//1 46//1
f 48//1 37//1 39//1
f 64//1 19//1 11//1
f 69//1 50//1 49//1
f 70//1 69//1 49//1
f 70//1 78//1 69//1
f 72//1 66//1 53//1
f 73//1 72//1 53//1
f 74//1 72//1 73//1
f 43//1 45//1 75//1
f 76//1 46//1 47//1
f 71//1 69//1 78//1
f 8//1 71//1 14//1
f 78//1 14//1 71//1
f 82//1 84//1 81//1
f 84//1 82//1 86//1
f 90//1 86//1 88//1
f 82//1 88//1 86//1
f 89//1 91//1 90//1
f 88//1 89//1 90//1
f 91//1 118//1 90//1
f 92//1 4//1 6//1
f 84//1 93//1 81//1
f 95//1 81//1 93//1
f 93//1 97//1 95//1
f 113//2 114//2 176//2
f 115//3 174//3 111//3
f 56//4 176//4 114//4
f 90//5 34//5 33//5
f 117//1 95//1 97//1
f 82//6 29//6 28//6
f 116//1 90//1 118//1
f 118//1 117//1 116//1
f 97//1 116//1 117//1
f 82//7 31//7 29//7
f 121//1 122//1 119//1
f 122//1 123//1 120//1
f 84//8 33//8 32//8
f 123//1 124//1 120//1
f 127//1 128//1 125//1
f 126//1 127//1 125//1
f 83//1 131//1 125//1
f 131//1 132//1 129//1
f 129//1 125//1 131//1
f 133//1 92//1 6//1
f 136//1 134//1 135//1
f 133//1 135//1 134//1
f 92//1 133//1 134//1
f 137//1 134//1 136//1
f 138//1 137//1 136//1
f 128//1 83//1 125//1
f 137//1 138//1 139//1
f 138//1 142//1 139//1
f 142//1 140//1 139//1
f 143//1 144//1 140//1
f 142//1 143//1 140//1
f 145//1 19//1 64//1
f 73//1 12//1 74//1
f 44//1 145//1 64//1
f 156//9 153//9 72//9
f 66//10 151//10 150//10
f 66//11 72//11 153//11
f 73//12 53//12 152//12
f 49//13 148//13 70//13
f 40//1 74//1 41//1
f 12//1 41//1 74//1
f 44//1 51//1 52//1
f 52//1 145//1 44//1
f 52//1 51//1 56//1
f 55//1 56//1 51//1
f 159//1 163//1 161//1
f 121//1 159//1 161//1
f 119//1 159//1 121//1
f 169//1 161//1 163//1
f 163//1 164//1 169//1
f 120//1 119//1 122//1
f 124//1 130//1 120//1
f 165//1 170//1 164//1
f 170//1 169//1 164//1
f 165//1 120//1 130//1
f 171//1 173//1 175//1
f 176//1 55//1 171//1
f 176//1 56//1 55//1
f 130//1 170//1 165//1
f 180//1 174//1 172//1
f 174//1 175//1 173//1
f 173//1 172//1 174//1
f 176//1 171//1 175//1
f 28//14 77//14 88//14
f 144//1 178//1 141//1
f 141//1 140//1 144//1
f 177//1 141//1 178//1
f 179//1 180//1 177//1
f 177//1 180//1 172//1
f 178//1 179//1 177//1
f 27//15 181//15 182//15
f 181//15 183//15 184//15
f 185//15 184//15 183//15
f 183//15 87//15 185//15
f 189//15 187//15 186//15
f 186//15 20//15 189//15
f 100//15 186//15 187//15
f 187//15 188//15 100//15
f 20//15 190//15 189//15
f 189//15 190//15 192//15
f 91//16 80//16 85//16
f 84//17 32//17 193//17
f 190//15 191//15 192//15
f 191//15 27//15 192//15
f 182//15 192//15 27//15
f 22//15 25//15 21//15
f 54//15 101//15 38//15
f 96//15 54//15 38//15
f 21//15 25//15 30//15
f 164//18 68//18 102//18
f 77//19 80//19 89//19
f 57//15 22//15 21//15
f 21//15 94//15 57//15
f 62//15 57//15 94//15
f 89//20 80//20 91//20
f 38//15 99//15 96//15
f 28//21 88//21 82//21
f 98//15 96//15 99//15
f 150//22 152//22 53//22
f 33//23 84//23 86//23
f 31//24 82//24 81//24
f 148//15 103//15 104//15
f 104//15 149//15 148//15
f 90//25 33//25 86//25
f 151//15 153//15 150//15
f 152//15 150//15 153//15
f 154//15 148//15 149//15
f 149//15 155//15 154//15
f 48//26 101//26 54//26
f 156//15 152//15 153//15
f 170//27 106//27 105//27
f 152//15 156//15 160//15
f 158//15 62//15 94//15
f 170//28 130//28 106//28
f 165//29 164//29 102//29
f 67//30 169//30 105//30
f 108//31 107//31 173//31
f 173//32 171//32 108//32
f 55//33 109//33 108//33
f 55//34 108//34 171//34
f 26//35 57//35 62//35
f 166//15 98//15 99//15
f 119//36 120//36 65//36
f 202//37 121//37 61//37
f 122//38 202//38 203//38
f 154//15 155//15 167//15
f 122//39 203//39 204//39
f 155//15 168//15 167//15
f 124//40 123//40 205//40
f 184//15 182//15 181//15
f 193//15 32//15 31//15
f 194//15 193//15 31//15
f 32//15 33//15 29//15
f 29//15 31//15 32//15
f 34//15 28//15 33//15
f 28//15 29//15 33//15
f 28//15 34//15 77//15
f 85//15 80//15 79//15
f 80//15 77//15 34//15
f 34//15 79//15 80//15
f 161//41 60//41 61//41
f 121//42 161//42 61//42
f 58//43 159//43 65//43
f 212//44 211//44 129//44
f 60//45 169//45 67//45
f 59//46 68//46 163//46
f 58//47 59//47 159//47
f 185//15 87//15 216//15
f 63//48 165//48 102//48
f 165//49 63//49 120//49
f 147//50 64//50 100//50
f 169//51 170//51 105//51
f 156//52 74//52 162//52
f 64//53 11//53 100//53
f 47//54 98//54 166//54
f 69//55 155//55 149//55
f 78//56 154//56 167//56
f 169//57 60//57 161//57
f 77//58 89//58 88//58
f 79//59 34//59 90//59
f 163//60 159//60 59//60
f 65//61 159//61 119//61
f 91//62 85//62 118//62
f 87//63 4//63 92//63
f 164//64 163//64 68//64
f 19//65 145//65 188//65
f 146//66 145//66 197//66
f 193//15 194//15 195//15
f 194//15 199//15 195//15
f 65//67 120//67 63//67
f 198//15 195//15 199//15
f 200//15 201//15 79//15
f 198//15 199//15 200//15
f 125//68 208//68 207//68
f 126//69 207//69 210//69
f 130//70 124//70 110//70
f 83//71 213//71 131//71
f 7//72 23//72 20//72
f 132//73 131//73 214//73
f 14//74 78//74 167//74
f 95//75 199//75 194//75
f 110//76 106//76 130//76
f 201//15 200//15 199//15
f 85//15 79//15 201//15
f 204//15 203//15 65//15
f 202//15 65//15 203//15
f 205//15 204//15 63//15
f 65//15 63//15 204//15
f 107//77 112//77 172//77
f 210//15 207//15 208//15
f 173//78 107//78 172//78
f 174//79 180//79 111//79
f 209//15 210//15 208//15
f 176//80 175//80 113//80
f 110//15 206//15 63//15
f 113//81 175//81 115//81
f 212//15 214//15 211//15
f 115//82 175//82 174//82
f 214//15 213//15 211//15
f 208//15 211//15 213//15
f 87//15 217//15 219//15
f 219//15 216//15 87//15
f 218//15 219//15 217//15
f 217//15 222//15 218//15
f 223//15 218//15 222//15
f 222//15 221//15 223//15
f 226//15 223//15 221//15
f 213//15 209//15 208//15
f 228//15 226//15 227//15
f 227//15 226//15 221//15
f 220//15 229//15 227//15
f 228//15 227//15 229//15
f 146//15 147//15 188//15
f 22//83 24//83 25//83
f 104//84 103//84 50//84
f 178//85 215//85 225//85
f 144//86 215//86 178//86
f 177//87 220//87 141//87
f 220//88 177//88 224//88
f 225//89 111//89 180//89
f 179//90 225//90 180//90
f 35//91 30//91 25//91
f 179//92 178//92 225//92
f 112//93 224//93 172//93
f 177//94 172//94 224//94
f 147//15 100//15 188//15
f 157//15 160//15 162//15
f 156//15 162//15 160//15
f 24//95 35//95 25//95
f 146//15 197//15 147//15
f 147//15 197//15 196//15
f 197//15 114//15 196//15
f 61//15 60//15 59//15
f 59//15 58//15 61//15
f 202//15 61//15 58//15
f 58//15 65//15 202//15
f 68//15 59//15 67//15
f 60//15 67//15 59//15
f 102//15 68//15 67//15
f 105//15 102//15 67//15
f 205//15 63//15 206//15
f 195//96 97//96 93//96
f 105//15 106//15 102//15
f 102//15 106//15 63//15
f 194//97 81//97 95//97
f 48//98 39//98 101//98
f 38//99 101//99 39//99
f 150//100 53//100 66//100
f 30//101 36//101 21//101
f 43//102 21//102 36//102
f 103//103 148//103 49//103
f 97//104 195//104 198//104
f 110//15 63//15 106//15
f 109//15 196//15 114//15
f 108//15 115//15 107//15
f 103//105 49//105 50//105
f 107//15 111//15 112//15
f 111//15 107//15 115//15
f 97//106 200//106 116//106
f 153//107 151//107 66//107
f 201//108 117//108 118//108
f 115//15 108//15 113//15
f 109//15 114//15 108//15
f 113//15 108//15 114//15
f 224//15 225//15 220//15
f 31//109 81//109 194//109
f 225//15 215//15 220//15
f 229//15 220//15 215//15
f 224//15 112//15 225//15
f 111//15 225//15 112//15
f 148//110 154//110 70//110
f 93//111 193//111 195//111
f 155//112 69//112 71//112
f 182//113 1//113 18//113
f 201//114 199//114 117//114
f 116//115 200//115 79//115
f 30//116 35//116 36//116
f 156//117 72//117 74//117
f 42//118 54//118 96//118
f 152//119 160//119 73//119
f 27//120 16//120 181//120
f 2//121 184//121 185//121
f 16//122 3//122 181//122
f 1//123 182//123 184//123
f 3//124 183//124 181//124
f 2//125 185//125 5//125
f 4//126 87//126 183//126
f 185//127 216//127 6//127
f 1//128 184//128 2//128
f 62//129 158//129 45//129
f 185//130 6//130 5//130
f 4//131 183//131 3//131
f 158//132 75//132 45//132
f 46//133 76//133 99//133
f 20//134 186//134 7//134
f 9//135 188//135 187//135
f 43//136 75//136 94//136
f 189//137 9//137 187//137
f 158//138 94//138 75//138
f 189//139 10//139 9//139
f 186//140 11//140 7//140
f 188//141 9//141 19//141
f 186//142 100//142 11//142
f 162//143 40//143 41//143
f 17//144 27//144 191//144
f 182//145 18//145 192//145
f 37//146 48//146 54//146
f 37//147 54//147 42//147
f 39//148 46//148 38//148
f 47//149 42//149 96//149
f 62//150 45//150 26//150
f 21//151 43//151 94//151
f 22//152 57//152 26//152
f 162//153 74//153 40//153
f 166//154 76//154 47//154
f 99//155 38//155 46//155
f 104//156 50//156 149//156
f 69//157 149//157 50//157
f 98//158 47//158 96//158
f 166//159 99//159 76//159
f 78//160 70//160 154//160
f 22//161 26//161 24//161
f 51//162 147//162 196//162
f 196//163 109//163 55//163
f 52//164 56//164 197//164
f 56//165 114//165 197//165
f 147//166 51//166 44//166
f 193//167 93//167 84//167
f 51//168 196//168 55//168
f 146//169 188//169 145//169
f 147//170 44//170 64//170
f 8//171 168//171 71//171
f 116//172 79//172 90//172
f 160//173 12//173 73//173
f 200//174 97//174 198//174
f 52//175 197//175 145//175
f 95//176 117//176 199//176
f 71//177 168//177 155//177
f 205//178 123//178 204//178
f 122//179 204//179 123//179
f 41//180 157//180 162//180
f 122//181 121//181 202//181
f 205//182 206//182 124//182
f 85//183 201//183 118//183
f 160//184 157//184 12//184
f 41//185 12//185 157//185
f 207//186 126//186 125//186
f 129//187 211//187 125//187
f 14//188 167//188 8//188
f 128//189 127//189 209//189
f 167//190 168//190 8//190
f 209//191 127//191 210//191
f 20//192 23//192 190//192
f 126//193 210//193 127//193
f 208//194 125//194 211//194
f 129//195 132//195 212//195
f 206//196 110//196 124//196
f 191//197 190//197 17//197
f 17//198 190//198 13//198
f 17//199 16//199 27//199
f 18//200 15//200 192//200
f 10//201 189//201 15//201
f 192//202 15//202 189//202
f 190//203 23//203 13//203
f 214//204 131//204 213//204
f 214//205 212//205 132//205
f 133//206 216//206 219//206
f 6//207 216//207 133//207
f 92//208 134//208 87//208
f 137//209 221//209 222//209
f 223//210 226//210 138//210
f 217//211 87//211 134//211
f 134//212 222//212 217//212
f 135//213 219//213 218//213
f 135//214 218//214 136//214
f 218//215 223//215 136//215
f 135//216 133//216 219//216
f 222//217 134//217 137//217
f 136//218 223//218 138//218
f 227//219 140//219 220//219
f 229//220 215//220 144//220
f 213//221 83//221 128//221
f 213//222 128//222 209//222
f 226//223 142//223 138//223
f 221//224 139//224 227//224
f 226//225 228//225 142//225
f 143//226 228//226 229//226
f 141//227 220//227 140//227
f 229//228 144//228 143//228
f 139//229 140//229 227//229
f 228//230 143//230 142//230
f 137//231 139//231 221//231
