# Blender 3.3.0
# www.blender.org
mtllib  gears.mtl
o obj_0
v 0.724425 1.421102 0.000000
v 0.793043 1.323926 0.000000
v 1.367393 -0.271592 0.411699
v 0.389920 1.696323 0.000000
v 0.493050 1.634033 0.000000
v 1.577288 -0.504752 0.411699
v 0.595701 1.380234 0.000000
v 1.538547 -0.370999 0.411699
v 1.366486 -0.494313 0.411699
v 1.480279 -0.573366 0.411699
v 0.462985 1.501909 0.000000
v 1.196245 -0.342820 0.411699
v 0.110932 1.669709 0.000000
v 0.087321 1.798301 0.000000
v 1.016695 -0.268931 0.411699
v 1.171193 -0.659582 0.411699
v 0.285984 1.609126 0.000000
v 1.239543 -0.528412 0.411699
v 1.052908 -0.642202 0.411699
v 0.930120 -0.091387 0.411699
v 1.691176 0.210296 0.000000
v 1.621200 0.305595 0.000000
v 1.482021 0.264441 0.000000
v 0.745222 -0.112336 0.411699
v 1.362235 0.336882 0.000000
v 1.608672 0.095761 0.000000
v 1.413290 0.060675 0.000000
v 0.776353 -0.249688 0.411699
v 0.715278 1.213234 0.000000
v 0.689263 -0.373721 0.411699
v 0.904416 -0.424309 0.411699
v 0.931222 1.055472 0.000000
v 1.026553 -0.499196 0.411699
v 0.782209 1.068090 0.000000
v 0.759716 -0.469381 0.411699
v 0.521028 0.019358 0.411699
v 0.959546 0.940032 0.000000
v 0.612994 -0.045531 0.411699
v 0.561596 -0.116591 0.411699
v 0.465014 -0.184734 0.411699
v 0.839959 0.707532 0.000000
v 0.350499 -0.103553 0.411699
v 0.833858 0.860842 0.000000
v 0.211426 -0.167022 0.411699
v 0.197410 -0.313015 0.411699
v 0.099189 0.921551 0.000000
v 0.001269 -0.219386 0.411699
v 0.081034 -0.343539 0.411699
v 0.161245 0.725907 0.000000
v 1.336749 0.480145 0.000000
v 0.793006 1.324031 0.411699
v 1.153314 0.369001 0.000000
v 1.218176 0.498526 0.000000
v 1.028835 0.339240 0.000000
v 0.972468 0.637779 0.000000
v 0.715180 1.213148 0.411699
v 0.954839 0.519759 0.000000
v 0.903355 -0.424534 -0.000000
v 0.931222 1.055472 0.411699
v 0.904365 0.428864 0.000000
v 0.782184 1.068063 0.411699
v 0.810486 0.491563 0.000000
v -0.031945 1.811599 0.411699
v 0.749855 0.328909 0.000000
v -0.088746 1.698346 0.411699
v -0.959564 0.259829 0.000000
v -0.840826 0.091653 0.000000
v 1.641277 -0.031669 -0.000000
v 1.770895 -0.099856 -0.000000
v 1.062299 0.140586 0.000000
v 1.232869 0.178954 0.000000
v 0.838832 0.224245 0.000000
v 0.689207 -0.373693 -0.000000
v 0.807614 0.359758 0.000000
v 0.961874 0.037722 0.000000
v 0.782206 0.100826 0.000000
v 0.776505 0.121657 0.000000
v -0.448531 1.643240 0.000000
v -0.252860 1.690401 0.411699
v 0.850589 0.211122 0.000000
v -0.320650 1.796753 0.411699
v 0.066252 0.515777 0.000000
v 1.754897 -0.216079 -0.000000
v 0.643824 0.151207 0.000000
v -0.437759 1.769934 0.411699
v 0.612859 -0.045649 -0.000000
v 0.630934 0.072087 0.000000
v 0.520570 0.019783 0.000000
v -0.448572 1.643125 0.411699
v -0.970449 0.051268 0.000000
v -0.600986 1.572487 0.411699
v 0.759404 -0.468942 -0.000000
v 1.431773 0.025619 0.411699
v 1.445104 -0.133345 0.411699
v 1.641402 -0.032524 0.411699
v -0.708447 1.648116 0.411699
v -0.805149 1.577512 0.411699
v 1.611608 -0.243261 0.411699
v -0.765776 1.452804 0.411699
v -1.021451 1.351151 0.411699
v -0.080462 1.014479 0.411699
v -0.256660 0.989884 0.411699
v -0.601141 1.572452 0.000000
v 0.065823 0.949157 0.411699
v -0.388838 0.832905 0.411699
v 1.450286 -0.096301 -0.000000
v 1.612105 -0.243211 -0.000000
v 1.393361 -0.245467 -0.000000
v -1.037400 0.149694 0.411699
v -1.037369 0.149536 0.000000
v -0.970536 0.051257 0.411699
v 1.537757 -0.370996 -0.000000
v 1.576654 -0.505256 -0.000000
v 1.368219 -0.495336 -0.000000
v -0.158462 -0.227525 0.411699
v 1.480406 -0.573423 -0.000000
v 1.286916 -0.319514 -0.000000
v 1.165644 -0.337182 -0.000000
v -0.887674 1.321122 0.411699
v 1.037416 -0.284757 -0.000000
v 1.171196 -0.659582 -0.000000
v -1.060347 0.968873 0.411699
v 1.237730 -0.526476 -0.000000
v -1.083509 1.248435 0.411699
v -0.996804 1.143593 0.411699
v 1.026486 -0.498206 -0.000000
v 1.052893 -0.642198 -0.000000
v -1.178862 0.948261 0.411699
v -1.194712 0.829849 0.411699
v -1.084900 0.772270 0.411699
v 0.941682 -0.150960 -0.000000
v 0.745375 -0.112210 -0.000000
v -0.385854 0.620291 0.411699
v -0.077773 0.458902 0.411699
v -0.708449 1.648115 0.000000
v -0.805198 1.577508 0.000000
v -0.766454 1.452836 0.000000
v 0.775367 -0.250710 -0.000000
v -0.887124 1.321008 0.000000
v -1.021465 1.351156 0.000000
v -0.097894 1.018764 0.000000
v -0.311265 0.956257 0.000000
v -0.221972 0.470336 0.411699
v 0.562238 -0.116009 -0.000000
v -1.029563 0.411182 0.411699
v -1.078001 0.604039 0.411699
v -1.185240 0.535908 0.411699
v -1.157220 0.421622 0.411699
v -0.959392 0.259873 0.411699
v -0.406576 0.748185 0.000000
v -0.840990 0.091606 0.411699
v -1.060143 0.968873 0.000000
v -1.083499 1.248424 0.000000
v -0.996381 1.142820 0.000000
v 0.351100 -0.104552 -0.000000
v 0.465152 -0.184789 -0.000000
v -0.339752 -0.337169 0.411699
v -0.221649 -0.353467 0.411699
v 0.211265 -0.167313 -0.000000
v -0.530621 -0.137124 0.411699
v -0.367838 -0.196004 0.411699
v 0.197410 -0.313015 -0.000000
v 0.959363 0.940585 0.411699
v 0.833243 0.859919 0.411699
v 0.001300 -0.219311 -0.000000
v 0.840847 0.706920 0.411699
v 0.081029 -0.343533 -0.000000
v -0.031448 1.812437 0.000000
v -0.089880 1.700537 0.000000
v -0.635622 -0.225076 0.411699
v -0.707495 -0.029472 0.411699
v -0.252570 1.689772 0.000000
v -0.320549 1.796777 0.000000
v -0.736900 -0.163733 0.411699
v 0.724474 1.421030 0.411699
v -0.437759 1.769934 0.000000
v 0.389920 1.696322 0.411699
v 0.493050 1.634032 0.411699
v 0.463252 1.502918 0.411699
v 0.593900 1.379893 0.411699
v -1.178775 0.948329 0.000000
v -1.194737 0.829818 0.000000
v 0.144636 0.821627 0.411699
v -1.084866 0.772101 0.000000
v -0.158212 -0.227066 -0.000000
v 0.155206 0.672463 0.411699
v -1.077925 0.604124 0.000000
v -0.142593 0.453116 0.000000
v -0.332485 0.537990 0.000000
v 1.336805 0.480035 0.411699
v -1.029314 0.411528 0.000000
v 1.218176 0.498526 0.411699
v 1.153321 0.369003 0.411699
v 1.028835 0.339240 0.411699
v 1.273636 0.169265 0.411699
v 0.750237 0.328491 0.411699
v 0.838836 0.224252 0.411699
v 0.808164 0.360249 0.411699
v 0.852863 0.211383 0.411699
v 1.031011 0.129741 0.411699
v 0.780281 0.100239 0.411699
v 0.776505 0.121657 0.411699
v -0.220817 -0.352265 -0.000000
v -0.338419 -0.338111 -0.000000
v 0.087484 1.799552 0.411699
v 0.972632 0.637715 0.411699
v 0.285240 1.608461 0.411699
v 0.954580 0.519729 0.411699
v 0.110254 1.671265 0.411699
v -1.185240 0.535908 0.000000
v -1.157214 0.421622 0.000000
v 0.904258 0.428893 0.411699
v -0.530604 -0.137067 -0.000000
v 0.809886 0.492444 0.411699
v -0.367332 -0.196270 -0.000000
v -0.635622 -0.225076 -0.000000
v -0.707455 -0.029443 -0.000000
v 0.059009 0.519089 0.411699
v 0.643033 0.151578 0.411699
v -0.736900 -0.163733 -0.000000
v 0.630801 0.072036 0.411699
v 1.691176 0.210296 0.411699
v 1.620894 0.305945 0.411699
v 1.481470 0.265199 0.411699
v 1.362310 0.336538 0.411699
v 1.608672 0.095761 0.411699
v 1.770697 -0.099130 0.411699
v 1.755337 -0.215221 0.411699
vn -0.0000 -0.0000 -1.0000
vn -0.0000 -0.0000 1.0000
vn 0.5137 0.8580 0.0006
vn 0.5175 0.8557 -0.0009
vn -0.5479 -0.8358 0.0346
vn -0.6720 -0.7398 -0.0328
vn 0.2948 -0.9556 -0.0012
vn 0.2975 -0.9547 -0.0000
vn -0.8050 -0.5933 -0.0000
vn -0.8715 0.4899 -0.0239
vn -0.9963 -0.0835 -0.0201
vn -0.4208 0.9072 0.0001
vn -0.9730 -0.2293 0.0242
vn -0.8171 0.5764 -0.0003
vn -0.8265 -0.5629 -0.0002
vn -0.8272 -0.5619 0.0002
vn -0.5895 0.8078 -0.0000
vn -0.9341 0.3565 0.0203
vn 0.9688 0.2479 0.0002
vn 0.8183 -0.5749 0.0001
vn 0.8185 -0.5745 0.0002
vn 0.0842 0.9965 -0.0000
vn 0.8643 -0.5029 -0.0017
vn -0.5897 0.8076 0.0001
vn 0.8680 -0.4965 0.0010
vn 0.1867 -0.9824 0.0001
vn 0.9582 0.2859 0.0019
vn -0.7338 0.6793 0.0013
vn 0.9081 0.4188 0.0001
vn -0.9536 -0.3011 0.0001
vn 0.5763 0.8173 -0.0000
vn 0.0509 -0.9987 -0.0002
vn -0.7376 0.6752 -0.0012
vn 0.9605 0.2782 -0.0018
vn -0.9549 -0.2968 0.0015
vn 0.1382 -0.9903 -0.0162
vn 0.5780 -0.8161 0.0001
vn 0.2809 -0.9589 0.0411
vn -0.4077 -0.9131 0.0078
vn -0.4422 -0.8966 0.0243
vn 0.5765 -0.8171 0.0003
vn 0.5774 -0.8164 0.0003
vn -0.5754 -0.8179 -0.0001
vn -0.5783 -0.8158 0.0011
vn 0.7640 -0.6433 -0.0488
vn 0.9988 0.0140 -0.0459
vn 0.9082 -0.4160 0.0465
vn 0.2190 0.9757 -0.0000
vn -0.9389 0.3442 -0.0005
vn -0.9398 0.3418 -0.0016
vn -0.8559 0.5171 -0.0000
vn -0.8560 0.5169 -0.0000
vn -0.7714 -0.6364 0.0004
vn -0.7706 -0.6373 -0.0000
vn -0.4509 -0.8926 0.0004
vn 0.0844 0.9964 0.0001
vn 0.9079 0.4193 0.0003
vn 0.9560 0.2934 -0.0008
vn -0.9912 0.1327 -0.0000
vn -0.5705 -0.8213 -0.0004
vn 0.8944 -0.4472 -0.0000
vn 0.8938 -0.4484 0.0005
vn 0.0486 -0.9988 -0.0011
vn 0.5388 -0.8424 -0.0011
vn 0.9713 0.2379 0.0001
vn 0.8167 0.5770 -0.0000
vn -0.1713 0.9852 0.0001
vn -0.1706 0.9853 -0.0001
vn 0.9605 0.2783 -0.0018
vn -0.3026 0.9531 0.0002
vn -0.3005 0.9538 -0.0005
vn 0.8169 0.5768 -0.0001
vn 0.9988 0.0496 0.0016
vn -0.4651 -0.8853 0.0003
vn -0.4644 -0.8856 0.0001
vn 0.5331 -0.8461 0.0014
vn 0.9712 0.2383 -0.0000
vn 0.4658 0.8849 0.0003
vn 0.1917 -0.9815 0.0024
vn -0.9911 0.1335 -0.0002
vn -0.5812 0.8137 -0.0002
vn 0.6855 0.7280 0.0036
vn 0.9992 0.0398 -0.0021
vn -0.9992 -0.0410 -0.0001
vn -0.5713 -0.8208 -0.0001
vn -0.3840 0.9228 -0.0323
vn -0.9991 -0.0413 -0.0002
vn -0.9527 -0.3022 0.0318
vn -0.9972 -0.0707 -0.0238
vn -0.5710 0.8208 0.0161
vn -0.8502 -0.5254 -0.0337
vn 0.3805 0.9246 -0.0164
vn -0.2872 0.9573 0.0318
vn 0.0790 0.9965 -0.0264
vn 0.4077 0.9122 0.0405
vn 0.6739 0.7364 -0.0599
vn 0.9417 0.3319 0.0557
vn -0.1367 -0.9906 0.0018
vn -0.1441 0.9893 0.0243
vn 0.3784 0.9255 -0.0154
vn 0.5781 -0.8160 -0.0003
vn 0.9397 -0.3419 0.0021
vn 0.2194 -0.9756 -0.0090
vn 0.1607 -0.9862 -0.0391
vn 0.6758 0.7371 -0.0022
vn 0.9954 -0.0956 -0.0003
vn -0.1195 -0.9928 -0.0031
vn 0.5170 0.8560 -0.0000
vn -0.6429 0.7660 -0.0000
vn -0.6427 0.7661 0.0001
vn 0.7620 0.6476 -0.0000
vn 0.9751 -0.2216 -0.0001
vn 0.9751 -0.2219 -0.0000
vn 0.4152 -0.9097 0.0028
vn 0.7619 0.6477 -0.0001
vn 0.1540 0.9881 0.0002
vn -0.8373 0.5468 0.0043
vn -0.8942 0.4478 -0.0000
vn -0.9578 -0.2876 0.0016
vn -0.9606 -0.2777 0.0055
vn -0.8499 0.5269 -0.0032
vn 0.9955 -0.0947 -0.0000
vn 0.1532 0.9882 -0.0000
vn 0.8945 -0.4471 -0.0000
vn 0.2594 -0.9658 0.0035
vn 0.8868 -0.4621 -0.0061
vn 0.9836 0.1806 -0.0009
vn 0.1182 0.9930 -0.0031
vn -0.8942 0.4477 -0.0000
vn -0.1454 -0.9894 -0.0000
vn 0.9846 0.1748 0.0010
vn -0.2325 0.9726 -0.0000
vn 0.2321 -0.9727 -0.0056
vn 0.5841 0.8117 0.0001
vn -0.9836 -0.1804 -0.0003
vn -0.9834 -0.1812 -0.0000
vn 0.4095 -0.9123 0.0005
vn -0.3401 -0.9404 0.0002
vn 0.8546 -0.5192 -0.0000
vn 0.9081 -0.4143 -0.0599
vn 0.7151 -0.6981 0.0360
vn 0.2537 -0.9673 -0.0000
vn 0.6421 -0.7666 -0.0001
vn -0.5365 0.8439 0.0001
vn 0.9370 -0.3493 -0.0012
vn -0.1854 0.9827 0.0001
vn -0.1866 0.9824 0.0005
vn -0.9105 0.4116 0.0401
vn -0.8470 0.5312 -0.0192
vn -0.4027 0.9152 -0.0144
vn -0.8413 -0.5405 -0.0002
vn -0.8416 -0.5401 -0.0000
vn -0.5362 0.8441 -0.0000
vn -0.0815 -0.9967 -0.0009
vn -0.9712 -0.2381 -0.0000
vn -0.9887 0.1497 0.0003
vn 0.3378 0.9412 0.0021
vn 0.1004 0.9949 0.0021
vn 0.3271 0.9450 -0.0030
vn -0.0660 0.9978 -0.0016
vn -0.9712 -0.2382 -0.0000
vn -0.9808 -0.1951 -0.0011
vn -0.5813 0.8137 -0.0002
vn -0.3409 -0.9401 -0.0001
vn -0.0787 -0.9969 -0.0000
vn -0.8161 0.5778 0.0003
vn 0.2974 -0.9548 -0.0000
vn -0.9773 -0.2116 -0.0004
vn -0.4488 -0.8936 -0.0004
vn 0.8433 0.5375 -0.0002
vn 0.8982 0.4380 -0.0382
vn -0.9072 -0.4207 0.0004
vn -0.9086 -0.4178 -0.0009
vn -0.8939 0.4483 -0.0002
vn -0.0484 0.9988 0.0054
vn 0.4649 0.8853 -0.0000
vn 0.7349 -0.6781 0.0020
vn 0.9890 -0.1477 -0.0004
vn 0.9885 -0.1512 0.0006
vn 0.9845 0.1751 -0.0001
vn 0.8060 0.5919 -0.0000
vn -0.9798 -0.1997 -0.0027
vn 0.6423 -0.7664 -0.0000
vn 0.7294 -0.6841 -0.0015
vn 0.9846 0.1750 -0.0000
vn 0.9690 0.2472 -0.0000
vn 0.8114 -0.5845 -0.0000
vn -0.8864 0.4629 0.0049
vn 0.1853 -0.9827 -0.0000
vn -0.2836 0.9590 -0.0010
vn 0.5843 0.8115 -0.0000
vn 0.8058 0.5921 0.0001
vn -0.2805 0.9598 -0.0021
vn -0.9768 0.2139 -0.0001
vn -0.2232 0.9748 -0.0000
vn 0.8441 0.5362 0.0002
vn -0.2174 -0.9761 -0.0000
vn -0.2187 -0.9758 0.0005
vn -0.9753 -0.2210 0.0029
vn -0.9884 0.1517 -0.0003
vn -0.6718 -0.7407 -0.0001
vn -0.8190 0.5738 0.0005
vn 0.9934 -0.1063 0.0433
vn -0.9964 0.0847 -0.0000
vn -0.9964 0.0850 -0.0001
vn 0.8131 0.5818 0.0186
vn 0.5755 0.8178 -0.0003
vn -0.4205 0.9073 0.0002
vn -0.6722 -0.7404 -0.0004
vn -0.9768 0.2142 -0.0000
vn -0.5181 -0.8553 -0.0000
vn -0.8184 0.5746 0.0002
vn 0.4580 0.8890 0.0017
vn -0.8052 -0.5930 0.0001
vn 0.2974 -0.9548 -0.0002
vn -0.5227 -0.8525 0.0018
vn -0.5134 -0.8581 -0.0020
vn 0.4656 0.8850 -0.0013
vn 0.9914 -0.1312 0.0007
vn 0.9907 -0.1364 -0.0008
vn 0.1915 -0.9815 0.0018
s 0
usemtl color_6970902
f 1//1 2//1 7//1
f 3//2 8//2 94//2
f 46//1 7//1 2//1
f 4//1 11//1 17//1
f 5//1 11//1 4//1
f 6//2 8//2 9//2
f 9//2 10//2 6//2
f 8//2 3//2 9//2
f 11//1 7//1 46//1
f 14//1 13//1 168//1
f 3//2 12//2 9//2
f 18//2 9//2 12//2
f 33//2 18//2 12//2
f 18//2 19//2 16//2
f 17//1 11//1 46//1
f 33//2 19//2 18//2
f 13//1 17//1 141//1
f 23//1 22//1 26//1
f 21//1 26//1 22//1
f 25//1 23//1 71//1
f 27//1 71//1 23//1
f 23//1 26//1 27//1
f 68//1 27//1 26//1
f 15//2 20//2 28//2
f 24//2 28//2 20//2
f 31//2 15//2 28//2
f 2//1 29//1 46//1
f 37//1 43//1 32//1
f 31//2 33//2 15//2
f 15//2 33//2 12//2
f 34//1 46//1 29//1
f 28//2 30//2 35//2
f 31//2 28//2 35//2
f 42//2 40//2 36//2
f 46//1 34//1 43//1
f 34//1 32//1 43//1
f 40//2 39//2 36//2
f 57//1 62//1 41//1
f 43//1 41//1 49//1
f 44//2 42//2 218//2
f 42//2 36//2 218//2
f 224//3 25//3 225//3
f 41//1 62//1 49//1
f 224//4 23//4 25//4
f 46//1 141//1 17//1
f 48//2 44//2 47//2
f 45//2 44//2 48//2
f 195//5 71//5 27//5
f 46//1 43//1 49//1
f 195//6 27//6 93//6
f 53//1 50//1 52//1
f 41//1 55//1 57//1
f 62//1 64//1 82//1
f 63//2 65//2 205//2
f 209//2 205//2 65//2
f 58//7 35//7 92//7
f 64//1 84//1 82//1
f 70//1 54//1 71//1
f 54//1 52//1 71//1
f 52//1 25//1 71//1
f 50//1 25//1 52//1
f 151//8 90//8 67//8
f 35//9 73//9 92//9
f 72//1 84//1 64//1
f 80//1 54//1 70//1
f 70//1 75//1 80//1
f 54//1 80//1 60//1
f 74//1 60//1 80//1
f 65//2 79//2 101//2
f 76//1 80//1 75//1
f 82//1 49//1 62//1
f 102//2 101//2 79//2
f 77//1 84//1 72//1
f 81//2 85//2 89//2
f 81//2 89//2 79//2
f 79//2 89//2 102//2
f 155//1 82//1 88//1
f 96//2 97//2 91//2
f 84//1 88//1 82//1
f 91//2 102//2 89//2
f 99//2 102//2 91//2
f 99//2 91//2 97//2
f 94//10 108//10 3//10
f 106//11 94//11 93//11
f 91//12 78//12 103//12
f 105//2 130//2 133//2
f 27//13 106//13 93//13
f 69//1 83//1 68//1
f 106//1 27//1 68//1
f 83//1 107//1 68//1
f 107//1 106//1 68//1
f 106//1 107//1 108//1
f 109//14 66//14 110//14
f 110//15 90//15 111//15
f 110//16 111//16 109//16
f 107//1 112//1 108//1
f 116//1 112//1 113//1
f 117//1 108//1 114//1
f 114//1 112//1 116//1
f 112//1 114//1 108//1
f 135//17 136//17 96//17
f 94//18 106//18 108//18
f 26//19 95//19 68//19
f 2//20 56//20 29//20
f 56//21 2//21 51//21
f 32//22 61//22 59//22
f 107//23 8//23 112//23
f 97//24 96//24 136//24
f 98//25 8//25 107//25
f 83//26 98//26 107//26
f 144//27 36//27 39//27
f 137//28 119//28 99//28
f 102//2 99//2 105//2
f 34//29 29//29 61//29
f 125//2 122//2 119//2
f 100//2 124//2 125//2
f 118//1 117//1 123//1
f 126//1 118//1 123//1
f 121//1 126//1 123//1
f 126//1 58//1 120//1
f 125//2 119//2 100//2
f 114//1 123//1 117//1
f 122//2 105//2 99//2
f 99//2 119//2 122//2
f 126//1 121//1 127//1
f 128//2 130//2 122//2
f 122//2 130//2 105//2
f 132//1 76//1 75//1
f 86//1 76//1 132//1
f 87//1 76//1 86//1
f 75//1 131//1 132//1
f 146//2 133//2 130//2
f 130//2 128//2 129//2
f 136//30 99//30 97//30
f 135//31 96//31 103//31
f 115//32 165//32 47//32
f 120//1 118//1 126//1
f 131//1 58//1 138//1
f 119//33 137//33 139//33
f 8//34 6//34 112//34
f 138//1 132//1 131//1
f 136//35 137//35 99//35
f 101//36 102//36 141//36
f 73//1 138//1 58//1
f 6//37 116//37 113//37
f 131//1 120//1 58//1
f 102//38 142//38 141//38
f 143//2 115//2 134//2
f 92//1 73//1 58//1
f 104//39 101//39 141//39
f 104//40 141//40 46//40
f 88//1 144//1 155//1
f 39//41 40//41 156//41
f 145//2 133//2 146//2
f 6//42 10//42 116//42
f 148//2 145//2 146//2
f 147//2 148//2 146//2
f 156//43 40//43 155//43
f 42//44 155//44 40//44
f 102//45 105//45 142//45
f 105//46 133//46 150//46
f 145//2 149//2 133//2
f 105//47 150//47 142//47
f 151//2 133//2 149//2
f 139//48 140//48 119//48
f 154//49 152//49 122//49
f 154//50 122//50 125//50
f 140//48 100//48 119//48
f 153//51 124//51 100//51
f 140//52 153//52 100//52
f 111//2 151//2 109//2
f 153//53 154//53 125//53
f 153//54 125//54 124//54
f 149//2 109//2 151//2
f 24//55 38//55 86//55
f 61//56 32//56 34//56
f 161//2 143//2 160//2
f 47//2 134//2 115//2
f 56//57 61//57 29//57
f 88//58 36//58 144//58
f 133//2 171//2 143//2
f 115//2 143//2 161//2
f 155//1 144//1 156//1
f 161//2 157//2 115//2
f 158//2 115//2 157//2
f 155//1 159//1 82//1
f 188//1 82//1 159//1
f 182//59 129//59 128//59
f 114//60 10//60 9//60
f 162//1 167//1 159//1
f 167//1 165//1 159//1
f 185//61 115//61 203//61
f 158//62 203//62 115//62
f 168//1 13//1 169//1
f 115//63 185//63 165//63
f 172//1 169//1 141//1
f 160//2 171//2 170//2
f 160//2 143//2 171//2
f 163//64 164//64 43//64
f 163//65 37//65 59//65
f 171//2 133//2 151//2
f 174//2 170//2 171//2
f 141//1 78//1 172//1
f 51//66 1//66 175//66
f 173//1 172//1 78//1
f 173//1 78//1 176//1
f 128//67 122//67 181//67
f 152//68 181//68 122//68
f 112//69 6//69 113//69
f 103//1 78//1 141//1
f 1//70 7//70 175//70
f 7//71 180//71 175//71
f 51//72 2//72 1//72
f 141//1 136//1 103//1
f 164//73 166//73 43//73
f 184//74 130//74 182//74
f 129//75 182//75 130//75
f 43//76 37//76 163//76
f 37//77 32//77 59//77
f 166//78 55//78 41//78
f 214//79 62//79 57//79
f 128//80 181//80 182//80
f 212//81 60//81 74//81
f 7//82 179//82 180//82
f 166//83 41//83 43//83
f 130//84 184//84 146//84
f 10//85 114//85 116//85
f 117//86 12//86 3//86
f 184//87 187//87 146//87
f 183//88 46//88 49//88
f 49//89 186//89 183//89
f 108//90 117//90 3//90
f 104//91 46//91 183//91
f 15//92 12//92 120//92
f 82//93 188//93 134//93
f 134//94 188//94 143//94
f 143//95 188//95 189//95
f 143//96 189//96 133//96
f 189//97 150//97 133//97
f 157//98 204//98 158//98
f 118//99 12//99 117//99
f 135//1 103//1 136//1
f 137//1 142//1 139//1
f 12//100 118//100 120//100
f 137//1 136//1 141//1
f 141//1 169//1 13//1
f 39//101 156//101 144//101
f 214//102 196//102 62//102
f 200//103 70//103 71//103
f 195//104 200//104 71//104
f 7//105 11//105 179//105
f 159//106 44//106 45//106
f 203//107 158//107 204//107
f 154//1 139//1 152//1
f 5//108 4//108 178//108
f 178//108 4//108 177//108
f 177//109 4//109 207//109
f 17//110 207//110 4//110
f 196//111 197//111 72//111
f 178//112 179//112 11//112
f 178//113 11//113 5//113
f 155//114 42//114 44//114
f 72//115 64//115 196//115
f 190//116 50//116 192//116
f 201//117 199//117 80//117
f 53//118 52//118 192//118
f 199//119 198//119 74//119
f 80//120 199//120 74//120
f 80//121 76//121 201//121
f 45//122 162//122 159//122
f 53//123 192//123 50//123
f 142//1 137//1 141//1
f 154//1 153//1 140//1
f 140//1 139//1 154//1
f 121//124 123//124 16//124
f 181//1 152//1 184//1
f 9//125 18//125 114//125
f 18//126 16//126 123//126
f 184//1 182//1 181//1
f 14//127 205//127 13//127
f 139//1 184//1 152//1
f 14//128 168//128 205//128
f 193//129 192//129 52//129
f 127//130 121//130 19//130
f 205//131 209//131 13//131
f 142//1 150//1 139//1
f 139//1 150//1 184//1
f 193//132 52//132 54//132
f 193//132 54//132 194//132
f 150//1 189//1 191//1
f 191//1 187//1 150//1
f 187//1 184//1 150//1
f 16//130 19//130 121//130
f 191//1 211//1 187//1
f 210//1 187//1 211//1
f 189//1 66//1 191//1
f 189//1 67//1 66//1
f 18//133 123//133 114//133
f 212//134 194//134 60//134
f 127//135 33//135 126//135
f 19//136 33//136 127//136
f 67//1 90//1 66//1
f 159//137 155//137 44//137
f 66//1 90//1 110//1
f 188//1 159//1 165//1
f 215//138 161//138 160//138
f 197//139 202//139 72//139
f 165//1 185//1 188//1
f 200//140 20//140 75//140
f 75//141 70//141 200//141
f 45//142 48//142 162//142
f 77//139 72//139 202//139
f 188//1 185//1 204//1
f 203//1 204//1 185//1
f 170//143 213//143 160//143
f 187//144 210//144 146//144
f 189//1 188//1 213//1
f 64//145 62//145 196//145
f 167//142 162//142 48//142
f 87//146 221//146 201//146
f 215//1 213//1 188//1
f 201//147 76//147 87//147
f 188//1 204//1 215//1
f 220//1 217//1 216//1
f 216//1 217//1 213//1
f 67//1 189//1 217//1
f 186//148 49//148 82//148
f 186//149 82//149 218//149
f 218//150 82//150 134//150
f 189//1 213//1 217//1
f 47//151 165//151 48//151
f 167//152 48//152 165//152
f 147//153 146//153 210//153
f 191//154 145//154 148//154
f 210//155 148//155 147//155
f 221//156 86//156 38//156
f 17//157 209//157 207//157
f 168//158 63//158 205//158
f 17//159 13//159 209//159
f 207//2 179//2 177//2
f 178//2 177//2 179//2
f 179//2 207//2 180//2
f 207//2 56//2 180//2
f 169//160 172//160 79//160
f 211//161 148//161 210//161
f 215//162 157//162 161//162
f 212//163 74//163 198//163
f 215//164 160//164 213//164
f 148//165 211//165 191//165
f 149//166 66//166 109//166
f 209//2 101//2 207//2
f 65//2 101//2 209//2
f 104//2 207//2 101//2
f 224//2 93//2 226//2
f 90//167 151//167 111//167
f 224//2 225//2 195//2
f 24//168 132//168 138//168
f 222//2 223//2 226//2
f 195//2 93//2 224//2
f 24//169 86//169 132//169
f 79//170 172//170 81//170
f 175//2 180//2 51//2
f 56//2 51//2 180//2
f 207//2 104//2 56//2
f 15//171 131//171 20//171
f 145//172 66//172 149//172
f 183//2 61//2 56//2
f 145//173 191//173 66//173
f 63//174 168//174 65//174
f 65//175 169//175 79//175
f 183//2 164//2 61//2
f 55//176 166//176 206//176
f 59//2 61//2 163//2
f 164//2 163//2 61//2
f 183//2 186//2 166//2
f 219//177 36//177 84//177
f 164//2 183//2 166//2
f 104//2 183//2 56//2
f 219//2 196//2 186//2
f 186//2 218//2 219//2
f 192//2 193//2 190//2
f 194//2 200//2 193//2
f 195//2 225//2 193//2
f 166//2 208//2 206//2
f 206//178 57//178 55//178
f 208//2 166//2 214//2
f 206//179 208//179 57//179
f 186//2 214//2 166//2
f 25//180 50//180 190//180
f 222//181 21//181 22//181
f 199//2 212//2 198//2
f 190//2 193//2 225//2
f 157//182 215//182 204//182
f 201//2 200//2 199//2
f 194//2 212//2 199//2
f 170//183 216//183 213//183
f 199//2 200//2 194//2
f 195//2 193//2 200//2
f 221//2 24//2 201//2
f 24//2 20//2 201//2
f 20//2 200//2 201//2
f 197//2 196//2 202//2
f 84//184 36//184 88//184
f 36//2 219//2 218//2
f 218//2 47//2 44//2
f 190//185 225//185 25//185
f 134//2 47//2 218//2
f 226//186 95//186 26//186
f 21//187 222//187 26//187
f 196//2 214//2 186//2
f 202//2 196//2 219//2
f 38//2 24//2 221//2
f 169//188 65//188 168//188
f 208//189 214//189 57//189
f 95//2 98//2 227//2
f 226//187 26//187 222//187
f 228//2 227//2 98//2
f 94//2 95//2 93//2
f 226//2 93//2 95//2
f 223//2 224//2 226//2
f 98//2 94//2 8//2
f 95//2 94//2 98//2
f 22//190 23//190 223//190
f 194//191 54//191 60//191
f 22//192 223//192 222//192
f 23//193 224//193 223//193
f 217//194 174//194 171//194
f 173//195 176//195 81//195
f 172//196 173//196 81//196
f 84//197 77//197 202//197
f 219//198 84//198 202//198
f 28//199 24//199 138//199
f 221//200 87//200 86//200
f 217//201 171//201 151//201
f 138//202 73//202 28//202
f 75//203 20//203 131//203
f 85//204 176//204 78//204
f 85//205 78//205 89//205
f 85//195 81//195 176//195
f 15//206 120//206 131//206
f 103//207 96//207 91//207
f 89//208 78//208 91//208
f 151//209 67//209 217//209
f 174//210 217//210 220//210
f 170//211 174//211 220//211
f 220//211 216//211 170//211
f 30//212 28//212 73//212
f 68//213 95//213 227//213
f 73//214 35//214 30//214
f 31//215 35//215 58//215
f 31//216 58//216 33//216
f 58//217 126//217 33//217
f 69//218 68//218 227//218
f 228//219 69//219 227//219
f 228//220 83//220 69//220
f 83//221 228//221 98//221
