# Blender 3.3.0
# www.blender.org
mtllib sword.mtl
o obj_0
v -1.241850 -0.725182 0.591357
v -1.241850 -0.306323 0.591357
v -1.241850 -0.306323 -0.000000
v -1.241850 -0.725182 -0.000000
v -0.820213 -0.725182 -0.000000
v -0.820213 -0.725182 0.591357
v 1.948523 2.455079 0.000000
v 1.942668 2.023980 0.000000
v 2.154965 2.029893 0.000000
v 1.948523 2.029893 0.000000
v 2.154965 2.661108 0.000000
v 1.523928 2.454606 0.000000
v 1.736655 2.454282 0.000000
v -0.604959 -0.306323 -0.000000
v 1.523928 2.661108 0.000000
v 1.518073 2.448752 0.000000
v 1.518073 2.242250 0.000000
v 1.736225 2.023980 0.000000
v 1.093420 2.023980 0.000000
v 1.305717 2.029893 0.000000
v 1.099333 2.029893 0.000000
v 1.099333 2.236336 0.000000
v 1.305717 2.236336 0.000000
v 1.311631 2.242250 0.000000
v 1.311631 2.448752 0.000000
v 0.887036 2.023980 0.000000
v 1.942668 1.817478 0.000000
v 1.093420 1.817478 0.000000
v 1.311631 1.599208 0.000000
v 1.518073 1.599208 0.000000
v 1.730371 1.605121 0.000000
v 1.523928 1.605121 0.000000
v 1.523928 1.811564 0.000000
v 1.730371 1.811564 0.000000
v 1.736225 1.817478 0.000000
v 1.093420 1.174436 0.000000
v 1.305717 1.180349 0.000000
v 1.099333 1.180349 0.000000
v 1.099333 1.386851 0.000000
v 1.305717 1.386851 0.000000
v 1.518073 1.392706 0.000000
v 1.311631 1.392706 0.000000
v 0.462441 1.599208 0.000000
v 0.668825 1.599208 0.000000
v 0.881122 1.605121 0.000000
v 0.674739 1.605121 0.000000
v 0.674739 1.811564 0.000000
v 0.881122 1.811564 0.000000
v 0.887036 1.817478 0.000000
v 0.668825 1.392706 0.000000
v 0.462441 1.392706 0.000000
v 0.037847 1.174436 0.000000
v 0.244231 1.174436 0.000000
v 0.456528 1.180349 0.000000
v 0.247187 1.180349 0.000000
v 0.247187 1.386851 0.000000
v 0.456528 1.386851 0.000000
v 0.887036 1.174436 0.000000
v 1.093420 0.967934 0.000000
v 0.668825 0.543221 0.000000
v 0.668825 0.749664 0.000000
v 0.881122 0.755577 0.000000
v 0.674739 0.755577 0.000000
v 0.674739 0.962079 0.000000
v 0.881122 0.962079 0.000000
v 0.887036 0.967934 0.000000
v 0.031933 0.962079 0.000000
v 0.031933 0.755577 0.000000
v 0.244231 0.967934 0.000000
v 0.037847 0.967934 0.000000
v 0.250144 0.537307 0.000000
v 0.456528 0.537307 0.000000
v 0.462441 0.543221 0.000000
v 0.462441 0.749664 0.000000
v 0.668825 0.324892 0.000000
v 0.668825 0.118449 0.000000
v 0.881120 0.111767 0.000000
v 0.674353 0.075339 0.000000
v 0.676927 0.095918 0.000000
v 0.683609 0.107686 0.000000
v 0.696560 0.113600 0.000000
v 0.718904 0.115539 0.000000
v 0.462441 0.324892 0.000000
v 0.244231 0.323532 0.000000
v 0.456528 0.330805 0.000000
v 0.250144 0.330805 0.000000
v 0.453571 0.113718 0.000000
v 0.462441 0.118449 0.000000
v 0.244231 0.118153 0.000000
v 0.256164 0.112947 0.000000
v 0.252138 0.092962 0.000000
v 0.254389 0.110565 0.000000
v 0.250422 0.054244 0.000000
v -0.142802 0.118698 0.000000
v 0.674739 -0.093967 -0.000000
v 0.881122 -0.300410 -0.000000
v 0.462441 -0.300410 -0.000000
v 0.462441 -0.093967 -0.000000
v 1.093420 1.174436 0.591358
v 1.099333 1.180349 0.591358
v 1.305717 1.180349 0.591358
v 1.305717 1.386851 0.591358
v 1.099333 1.386851 0.591358
v 1.311631 1.392706 0.591358
v 1.518073 1.392706 0.591358
v 0.462441 1.599208 0.591358
v 0.668825 1.599208 0.591358
v 0.674739 1.811564 0.591358
v 0.674739 1.605121 0.591358
v 0.881122 1.605121 0.591358
v 0.881122 1.811564 0.591358
v 0.887036 1.817477 0.591358
v 0.462441 1.392706 0.591358
v 0.668825 1.392706 0.591358
v 0.244231 1.174436 0.591358
v 0.037847 1.174436 0.591358
v 0.247187 1.386851 0.591358
v 0.247187 1.180349 0.591358
v 0.456528 1.180349 0.591358
v 0.456528 1.386851 0.591358
v 0.887036 1.174436 0.591358
v 1.093420 0.967934 0.591358
v 0.668825 0.543221 0.591357
v 0.668825 0.749664 0.591357
v 0.881122 0.962079 0.591358
v 0.674739 0.962079 0.591358
v 0.674739 0.755577 0.591357
v 0.881122 0.755577 0.591357
v 0.887036 0.967934 0.591358
v 0.031933 0.755577 0.591357
v 0.031933 0.962079 0.591358
v 0.037847 0.967934 0.591358
v 0.244231 0.967934 0.591358
v 0.250144 0.537307 0.591357
v 0.456528 0.537307 0.591357
v 0.462441 0.749664 0.591357
v 0.462441 0.543221 0.591357
v 0.668825 0.118449 0.591357
v 0.668825 0.324892 0.591357
v 0.881122 0.111944 0.591357
v 0.718965 0.115509 0.591357
v 0.674299 0.075287 0.591357
v 0.696560 0.113600 0.591357
v 0.683609 0.107686 0.591357
v 0.676927 0.095918 0.591357
v 0.462441 0.324892 0.591357
v 0.244231 0.323532 0.591357
v 0.250144 0.330805 0.591357
v 0.456528 0.330805 0.591357
v 0.453571 0.113718 0.591357
v 0.462441 0.118449 0.591357
v 0.244231 0.118153 0.591357
v 0.256150 0.112941 0.591357
v 0.254477 0.110652 0.591357
v 0.252093 0.092836 0.591357
v 0.250342 0.049703 0.591357
v 0.674739 -0.093967 0.591357
v 0.462441 -0.300410 0.591357
v 0.881122 -0.300410 0.591357
v 0.462441 -0.093967 0.591357
v 0.456824 -0.088053 0.591357
v 0.250144 -0.088053 0.591357
v -0.180364 1.174436 0.591358
v -0.386216 1.174436 0.591358
v -0.389728 0.967934 0.591358
v -0.392661 1.180349 0.591358
v -0.392661 1.386851 0.591358
v -0.604959 1.180349 0.591358
v -0.817478 1.386851 0.591358
v -0.180364 0.332224 0.591357
v -0.180364 0.749664 0.591357
v -0.389704 0.749664 0.591357
v -0.180364 0.967934 0.591358
v -0.392661 0.755577 0.591357
v -0.392661 0.962079 0.591358
v -0.173933 0.962079 0.591358
v -0.177407 0.755577 0.591357
v -0.602002 0.755577 0.591357
v -0.602002 0.962079 0.591358
v -0.816724 0.967934 0.591358
v -0.604959 0.967934 0.591358
v -0.392661 0.324892 0.591357
v -0.386452 0.330805 0.591357
v -0.180364 0.330805 0.591357
v -0.180364 0.118449 0.591357
v -0.392661 0.116746 0.591357
v -0.144137 0.118703 0.591357
v -0.392661 0.118449 0.591357
v -0.599045 0.324892 0.591357
v -0.604500 0.122876 0.591357
v -0.599371 0.173211 0.591357
v -0.601355 0.137613 0.591357
v -0.604959 0.118449 0.591357
v -0.608289 0.118142 0.591357
v -0.623881 0.114803 0.591357
v -0.672162 0.112758 0.591357
v -0.815095 0.107186 0.591357
v -0.815940 0.065407 0.591357
v -0.776935 0.112659 0.591357
v -0.807198 0.110335 0.591357
v -0.813412 0.108751 0.591357
v -0.393253 -0.300410 0.591357
v -0.393253 -0.093908 0.591357
v -0.180364 -0.088053 0.591357
v -0.392661 -0.088053 0.591357
v -0.604959 -0.093908 0.591357
v -0.815794 -0.098991 0.591357
v -0.802047 -0.096046 0.591357
v -0.757736 -0.094073 0.591357
v -0.817256 -0.093967 0.591357
v -0.817454 -0.101333 0.591357
v -0.819281 -0.229295 0.591357
v -0.604959 -0.306323 0.591357
v -0.604959 -0.300410 0.591357
v -0.816310 -0.306323 0.591357
v -0.824766 -0.301119 0.591357
v -0.823085 -0.293156 0.591357
v -0.821030 -0.270654 0.591357
v -0.910985 -0.302177 0.591357
v -0.826307 -0.303139 0.591357
v -0.817655 -0.512825 0.591357
v -0.820213 -0.518680 0.591357
v -0.604959 -0.512825 0.591357
v -1.029553 -0.518680 0.591357
v -1.029553 -0.306323 0.591357
v -1.029553 -0.093967 0.591357
v -1.029553 -0.300114 0.591357
v 1.948523 2.455079 0.591358
v 1.942668 2.023980 0.591358
v 1.948523 2.029893 0.591358
v 2.154965 2.029893 0.591358
v 1.523928 2.454606 0.591358
v 1.523928 2.661108 0.591358
v 1.744702 2.454292 0.591358
v 1.523928 1.605121 0.591358
v 1.523928 1.811564 0.591358
v 1.730371 1.605121 0.591358
v 1.736225 1.817477 0.591358
v 1.518073 2.242250 0.591358
v 1.518073 2.448752 0.591358
v 1.736225 2.023980 0.591358
v 1.305717 2.236336 0.591358
v 1.305717 2.029893 0.591358
v 1.099333 2.236336 0.591358
v 1.093420 2.023980 0.591358
v 1.099333 2.029893 0.591358
v 1.311631 2.242250 0.591358
v 1.311631 2.448752 0.591358
v 0.887036 2.023980 0.591358
v 1.942668 1.817477 0.591358
v 1.730371 1.811564 0.591358
v 1.093420 1.817477 0.591358
v 1.518073 1.599208 0.591358
v 1.311631 1.599208 0.591358
v 0.456824 -0.088053 -0.000000
v 0.250144 -0.088053 -0.000000
v -0.389719 0.967934 0.000000
v -0.386216 1.174436 0.000000
v -0.180364 1.174436 0.000000
v -0.392661 1.386851 0.000000
v -0.392661 1.180349 0.000000
v -0.604959 1.180349 0.000000
v -0.816709 0.967934 0.000000
v -0.817492 1.386851 0.000000
v -0.389704 0.749664 0.000000
v -0.180364 0.749664 0.000000
v -0.180364 0.332225 0.000000
v -0.180364 0.967934 0.000000
v -0.392661 0.962079 0.000000
v -0.392661 0.755577 0.000000
v -0.177422 0.755577 0.000000
v -0.173918 0.962079 0.000000
v -0.602002 0.962079 0.000000
v -0.602002 0.755577 0.000000
v -0.604959 0.967934 0.000000
v -0.180364 0.118449 0.000000
v -0.392661 0.324892 0.000000
v -0.392661 0.118449 0.000000
v -0.484440 0.118449 0.000000
v -0.180364 0.330805 0.000000
v -0.386452 0.330805 0.000000
v -0.599045 0.324892 0.000000
v -0.604181 0.123602 0.000000
v -0.599346 0.172035 0.000000
v -0.601430 0.137413 0.000000
v -0.604959 0.118449 0.000000
v -0.607850 0.118420 0.000000
v -0.619542 0.115422 0.000000
v -0.677898 0.112759 0.000000
v -0.641321 0.113691 0.000000
v -0.604959 0.000000 0.000000
v -0.815921 0.068304 0.000000
v -0.815091 0.107191 0.000000
v -0.813412 0.108751 0.000000
v -0.806166 0.110511 0.000000
v -0.772747 0.112773 0.000000
v -0.393253 -0.093908 -0.000000
v -0.393253 -0.300410 -0.000000
v -0.180364 -0.088053 -0.000000
v -0.392661 -0.088053 -0.000000
v -0.604959 -0.093908 -0.000000
v -0.815473 -0.098776 -0.000000
v -0.802269 -0.096122 -0.000000
v -0.763499 -0.094174 -0.000000
v -0.817449 -0.101325 -0.000000
v -0.817256 -0.093967 -0.000000
v -0.819457 -0.238517 -0.000000
v -0.604959 -0.512825 -0.000000
v -0.604959 -0.300410 -0.000000
v -0.816310 -0.306323 -0.000000
v -0.821980 -0.283247 -0.000000
v -0.824435 -0.300501 -0.000000
v -0.604959 -0.093908 0.484440
v -0.826258 -0.303108 -0.000000
v -0.908809 -0.302211 -0.000000
v -0.817646 -0.512825 -0.000000
v -0.820213 -0.518679 -0.000000
v -1.029553 -0.518679 -0.000000
v -1.029553 -0.306323 -0.000000
v -1.029553 -0.300114 -0.000000
v -1.029553 -0.093967 -0.000000
v 2.154965 2.661108 0.591358
v -0.604959 -0.093908 0.242220
v -0.180364 0.118449 0.484440
v -0.392661 0.118449 0.484440
v -0.180364 0.118449 0.242220
v -0.392661 0.118449 0.242220
vn -1.0000 -0.0000 -0.0000
vn -0.0000 -1.0000 -0.0000
vn -0.0000 -0.0000 -1.0000
vn -0.0000 -0.0000 1.0000
vn -0.9990 0.0443 -0.0001
vn 0.9999 0.0161 -0.0000
vn 0.0039 -1.0000 -0.0000
vn 1.0000 -0.0000 -0.0000
vn -0.0014 -1.0000 -0.0000
vn -0.0015 -1.0000 -0.0000
vn -0.0000 1.0000 -0.0000
vn -1.0000 0.0014 -0.0000
vn -0.9919 0.1268 -0.0000
vn 0.0220 0.9998 -0.0003
vn 0.0232 0.9997 -0.0000
vn 0.0038 -1.0000 -0.0000
vn -0.0865 0.9963 -0.0000
vn -0.0849 0.9964 0.0001
vn -0.4154 0.9097 -0.0000
vn -0.8696 0.4938 -0.0000
vn -0.9923 0.1241 -0.0001
vn -0.9920 0.1263 -0.0000
vn 0.0011 -1.0000 -0.0000
vn -0.0039 1.0000 -0.0000
vn -1.0000 0.0065 -0.0000
vn -0.9912 0.1327 0.0001
vn -0.8074 0.5901 -0.0000
vn 0.2094 -0.9778 -0.0002
vn 0.8160 -0.5781 -0.0000
vn -0.8019 0.5975 -0.0000
vn -0.9992 0.0406 0.0002
vn -1.0000 0.0020 -0.0001
vn -1.0000 -0.0026 -0.0001
vn -1.0000 -0.0023 -0.0000
vn -0.9999 0.0170 -0.0000
vn -1.0000 -0.0018 -0.0000
vn -1.0000 -0.0019 -0.0000
vn -0.9999 0.0168 -0.0000
vn 0.0070 -1.0000 -0.0000
vn -1.0000 -0.0078 -0.0000
vn 0.0205 0.9998 -0.0000
vn 0.0068 -1.0000 -0.0000
vn 0.0066 -1.0000 -0.0000
vn -0.2094 0.9778 -0.0005
vn -0.0114 -0.9999 -0.0000
vn -0.0109 -0.9999 -0.0001
vn 0.9991 -0.0423 0.0004
vn 0.8195 -0.5730 -0.0001
vn 0.7950 -0.6066 -0.0000
vn 0.9959 -0.0909 0.0003
vn 0.9984 -0.0563 -0.0004
vn 0.9784 -0.2065 0.0003
vn 0.0014 -1.0000 0.0002
vn 0.0017 -1.0000 -0.0000
vn 0.0502 -0.9987 0.0001
vn -1.0000 0.0082 -0.0000
vn 0.1971 -0.9804 0.0001
vn 0.7902 -0.6128 0.0002
vn -1.0000 0.0020 -0.0000
vn -0.7807 0.6249 -0.0003
vn 0.0445 -0.9990 -0.0003
vn -0.0766 0.9971 0.0002
vn -0.2472 0.9690 -0.0000
vn -0.6808 0.7324 -0.0000
vn -0.6806 0.7326 -0.0000
vn 0.9999 -0.0146 -0.0000
vn 0.9999 -0.0143 -0.0001
vn -1.0000 0.0022 -0.0000
vn -0.8161 0.5779 0.0003
vn -0.9985 0.0556 -0.0002
vn -0.9807 0.1954 0.0001
vn -0.9780 0.2087 -0.0003
vn -0.0009 1.0000 0.0002
vn 0.9900 -0.1409 -0.0005
vn -0.2484 0.9687 0.0003
vn -0.0792 0.9969 0.0005
vn -0.0423 0.9991 -0.0006
vn -0.9982 0.0601 0.0001
vn -0.0174 -0.9998 -0.0000
vn -0.0255 0.9997 0.0002
vn -0.0675 0.9977 -0.0003
vn -0.2360 0.9717 -0.0001
vn -0.9998 0.0202 0.0001
vn -0.9998 0.0213 -0.0000
vn 0.0002 1.0000 -0.0000
vn -1.0000 0.0083 -0.0000
s 0
usemtl color_15506754
f 1//1 2//1 3//1
f 1//1 3//1 4//1
f 5//2 6//2 1//2
f 5//2 1//2 4//2
f 9//3 10//3 7//3
f 9//3 7//3 11//3
f 12//3 15//3 13//3
f 11//3 7//3 13//3
f 11//3 13//3 15//3
f 20//3 21//3 22//3
f 20//3 22//3 23//3
f 16//3 17//3 25//3
f 24//3 25//3 17//3
f 35//3 18//3 27//3
f 49//3 26//3 28//3
f 31//3 32//3 33//3
f 31//3 33//3 34//3
f 8//3 27//3 18//3
f 37//3 38//3 39//3
f 37//3 39//3 40//3
f 29//3 30//3 42//3
f 41//3 42//3 30//3
f 45//3 46//3 47//3
f 45//3 47//3 48//3
f 19//3 28//3 26//3
f 43//3 44//3 51//3
f 50//3 51//3 44//3
f 52//3 53//3 69//3
f 54//3 55//3 56//3
f 54//3 56//3 57//3
f 66//3 58//3 59//3
f 62//3 63//3 64//3
f 62//3 64//3 65//3
f 36//3 59//3 58//3
f 69//3 70//3 52//3
f 74//3 61//3 73//3
f 60//3 73//3 61//3
f 78//3 79//3 81//3
f 81//3 82//3 78//3
f 80//3 81//3 79//3
f 78//3 82//3 77//3
f 71//3 72//3 86//3
f 85//3 86//3 72//3
f 83//3 75//3 76//3
f 83//3 76//3 88//3
f 255//3 90//3 87//3
f 91//3 92//3 255//3
f 90//3 255//3 92//3
f 93//3 91//3 255//3
f 89//3 94//3 84//3
f 280//3 84//3 94//3
f 95//3 77//3 96//3
f 98//3 95//3 97//3
f 96//3 97//3 95//3
f 100//4 101//4 102//4
f 100//4 102//4 103//4
f 106//4 113//4 107//4
f 108//4 109//4 110//4
f 108//4 110//4 111//4
f 113//4 114//4 107//4
f 117//4 118//4 119//4
f 117//4 119//4 120//4
f 137//4 123//4 124//4
f 125//4 126//4 127//4
f 125//4 127//4 128//4
f 121//4 129//4 122//4
f 122//4 99//4 121//4
f 133//4 115//4 132//4
f 116//4 132//4 115//4
f 136//4 137//4 124//4
f 145//4 142//4 143//4
f 141//4 143//4 142//4
f 144//4 145//4 143//4
f 142//4 157//4 141//4
f 170//4 184//4 147//4
f 149//4 135//4 148//4
f 134//4 148//4 135//4
f 151//4 138//4 146//4
f 138//4 139//4 146//4
f 156//4 161//4 155//4
f 155//4 161//4 154//4
f 153//4 154//4 161//4
f 152//4 147//4 187//4
f 158//4 159//4 157//4
f 158//4 157//4 160//4
f 157//4 159//4 141//4
f 140//4 141//4 159//4
f 162//4 161//4 156//4
f 150//4 153//4 161//4
f 164//4 165//4 163//4
f 166//4 167//4 168//4
f 167//4 169//4 168//4
f 170//4 171//4 172//4
f 163//4 165//4 173//4
f 177//4 130//4 176//4
f 130//4 131//4 176//4
f 175//4 179//4 174//4
f 178//4 174//4 179//4
f 168//4 169//4 181//4
f 180//4 181//4 169//4
f 184//4 170//4 183//4
f 172//4 183//4 170//4
f 147//4 184//4 187//4
f 185//4 187//4 184//4
f 185//4 188//4 186//4
f 189//4 191//4 182//4
f 192//4 188//4 191//4
f 190//4 188//4 192//4
f 182//4 191//4 188//4
f 193//4 188//4 190//4
f 193//4 190//4 194//4
f 195//4 206//4 194//4
f 193//4 194//4 206//4
f 206//4 195//4 196//4
f 199//4 200//4 198//4
f 197//4 198//4 200//4
f 200//4 201//4 197//4
f 196//4 199//4 198//4
f 205//4 204//4 186//4
f 185//4 186//4 204//4
f 206//4 196//4 209//4
f 203//4 206//4 214//4
f 198//4 207//4 208//4
f 208//4 209//4 198//4
f 198//4 209//4 196//4
f 211//4 207//4 226//4
f 210//4 226//4 207//4
f 198//4 210//4 207//4
f 211//4 226//4 212//4
f 155//5 91//5 93//5
f 214//4 202//4 203//4
f 216//4 217//4 220//4
f 218//4 226//4 217//4
f 212//4 226//4 218//4
f 219//4 220//4 226//4
f 220//4 217//4 226//4
f 87//6 161//6 255//6
f 223//4 213//4 221//4
f 213//4 215//4 221//4
f 1//4 6//4 224//4
f 222//4 224//4 6//4
f 225//4 2//4 224//4
f 2//4 1//4 224//4
f 227//4 219//4 226//4
f 228//7 234//7 7//7
f 229//8 250//8 8//8
f 228//1 7//1 10//1
f 228//1 10//1 230//1
f 10//2 9//2 231//2
f 10//2 231//2 230//2
f 15//1 12//1 232//1
f 15//1 232//1 233//1
f 13//9 234//9 232//9
f 13//10 232//10 12//10
f 33//1 32//1 235//1
f 33//1 235//1 236//1
f 237//2 235//2 32//2
f 237//2 32//2 31//2
f 18//1 35//1 238//1
f 18//1 238//1 241//1
f 105//8 41//8 30//8
f 40//8 102//8 101//8
f 40//8 101//8 37//8
f 40//11 39//11 103//11
f 40//11 103//11 102//11
f 36//11 121//11 99//11
f 39//1 38//1 100//1
f 39//1 100//1 103//1
f 101//2 100//2 38//2
f 101//2 38//2 37//2
f 29//1 42//1 104//1
f 105//2 104//2 42//2
f 105//2 42//2 41//2
f 48//8 111//8 110//8
f 48//8 110//8 45//8
f 48//11 47//11 108//11
f 48//11 108//11 111//11
f 107//11 44//11 43//11
f 107//11 43//11 106//11
f 43//1 113//1 106//1
f 47//1 46//1 109//1
f 47//1 109//1 108//1
f 110//2 109//2 46//2
f 110//2 46//2 45//2
f 26//1 49//1 112//1
f 43//1 51//1 113//1
f 50//8 44//8 114//8
f 107//8 114//8 44//8
f 114//2 113//2 51//2
f 114//2 51//2 50//2
f 120//11 57//11 56//11
f 120//11 56//11 117//11
f 53//8 115//8 69//8
f 53//11 52//11 116//11
f 53//11 116//11 115//11
f 256//12 162//12 156//12
f 56//1 55//1 118//1
f 56//1 118//1 117//1
f 120//8 119//8 54//8
f 120//8 54//8 57//8
f 119//2 118//2 55//2
f 119//2 55//2 54//2
f 36//11 58//11 121//11
f 59//2 122//2 66//2
f 99//8 122//8 59//8
f 99//8 59//8 36//8
f 65//8 125//8 128//8
f 65//8 128//8 62//8
f 65//11 64//11 126//11
f 65//11 126//11 125//11
f 61//8 124//8 123//8
f 61//8 123//8 60//8
f 123//2 137//2 60//2
f 64//1 63//1 127//1
f 64//1 127//1 126//1
f 128//2 127//2 63//2
f 128//2 63//2 62//2
f 129//1 121//1 66//1
f 58//1 66//1 121//1
f 122//2 129//2 66//2
f 67//8 131//8 130//8
f 67//8 130//8 68//8
f 67//11 176//11 131//11
f 155//13 92//13 91//13
f 132//1 116//1 70//1
f 52//1 70//1 116//1
f 69//2 133//2 132//2
f 69//2 132//2 70//2
f 115//8 133//8 69//8
f 61//11 74//11 136//11
f 61//11 136//11 124//11
f 72//11 71//11 134//11
f 72//11 134//11 135//11
f 74//1 73//1 137//1
f 74//1 137//1 136//1
f 137//2 73//2 60//2
f 75//8 139//8 138//8
f 75//8 138//8 76//8
f 75//11 83//11 139//11
f 140//14 77//14 141//14
f 141//15 77//15 82//15
f 138//2 88//2 76//2
f 234//16 13//16 7//16
f 239//8 17//8 16//8
f 239//8 16//8 240//8
f 82//17 81//17 143//17
f 82//18 143//18 141//18
f 81//19 80//19 144//19
f 81//19 144//19 143//19
f 16//11 248//11 240//11
f 80//20 79//20 145//20
f 80//20 145//20 144//20
f 241//11 229//11 18//11
f 8//11 18//11 229//11
f 79//21 78//21 142//21
f 79//22 142//22 145//22
f 23//8 242//8 243//8
f 23//8 243//8 20//8
f 23//11 22//11 244//11
f 23//11 244//11 242//11
f 252//8 19//8 245//8
f 22//1 21//1 246//1
f 22//1 246//1 244//1
f 243//2 246//2 21//2
f 243//2 21//2 20//2
f 24//2 17//2 247//2
f 239//2 247//2 17//2
f 151//2 88//2 138//2
f 16//11 25//11 248//11
f 25//1 24//1 247//1
f 25//1 247//1 248//1
f 249//11 245//11 26//11
f 19//11 26//11 245//11
f 112//1 249//1 26//1
f 250//8 27//8 8//8
f 72//8 135//8 149//8
f 35//2 27//2 238//2
f 250//2 238//2 27//2
f 34//8 251//8 237//8
f 34//8 237//8 31//8
f 252//8 28//8 19//8
f 49//2 28//2 112//2
f 252//2 112//2 28//2
f 134//1 71//1 148//1
f 34//11 33//11 236//11
f 34//11 236//11 251//11
f 105//8 30//8 253//8
f 30//11 29//11 254//11
f 30//11 254//11 253//11
f 29//1 104//1 254//1
f 78//3 77//3 95//3
f 256//3 93//3 255//3
f 258//3 259//3 257//3
f 259//3 268//3 257//3
f 260//3 261//3 262//3
f 260//3 262//3 264//3
f 264//3 262//3 263//3
f 262//3 275//3 263//3
f 265//3 266//3 267//3
f 269//3 270//3 273//3
f 272//3 67//3 271//3
f 68//3 271//3 67//3
f 270//3 274//3 273//3
f 277//3 278//3 279//3
f 280//3 281//3 267//3
f 267//3 281//3 265//3
f 276//3 280//3 94//3
f 267//3 84//3 280//3
f 282//3 277//3 284//3
f 279//3 284//3 277//3
f 285//3 284//3 279//3
f 279//3 283//3 285//3
f 287//3 283//3 286//3
f 279//3 286//3 283//3
f 288//3 287//3 291//3
f 286//3 291//3 287//3
f 290//3 291//3 289//3
f 288//3 291//3 290//3
f 294//3 295//3 293//3
f 292//3 293//3 295//3
f 295//3 296//3 292//3
f 291//3 292//3 296//3
f 289//3 291//3 296//3
f 304//3 292//3 291//3
f 301//3 297//3 298//3
f 300//3 278//3 299//3
f 276//3 299//3 278//3
f 291//3 301//3 304//3
f 303//3 302//3 292//3
f 304//3 303//3 292//3
f 306//3 292//3 302//3
f 302//3 305//3 321//3
f 321//3 306//3 302//3
f 307//3 321//3 305//3
f 214//2 298//2 202//2
f 297//8 203//8 202//8
f 297//8 202//8 298//8
f 298//3 309//3 301//3
f 308//3 316//3 14//3
f 299//2 204//2 205//2
f 299//2 205//2 300//2
f 276//8 326//8 299//8
f 185//8 204//8 324//8
f 186//1 327//1 205//1
f 311//3 312//3 314//3
f 314//3 321//3 311//3
f 315//3 321//3 314//3
f 209//23 313//23 206//23
f 297//11 323//11 203//11
f 206//11 203//11 313//11
f 313//1 214//1 206//1
f 307//3 311//3 321//3
f 310//3 14//3 316//3
f 5//3 318//3 317//3
f 3//3 319//3 318//3
f 5//3 4//3 318//3
f 3//3 318//3 4//3
f 320//3 321//3 315//3
f 322//8 231//8 9//8
f 322//8 9//8 11//8
f 322//11 11//11 233//11
f 233//11 11//11 15//11
f 228//4 322//4 234//4
f 233//4 234//4 322//4
f 230//4 231//4 228//4
f 322//4 228//4 231//4
f 232//4 234//4 233//4
f 240//4 248//4 239//4
f 246//4 243//4 242//4
f 246//4 242//4 244//4
f 248//4 247//4 239//4
f 249//4 112//4 245//4
f 229//4 238//4 250//4
f 245//4 112//4 252//4
f 254//4 104//4 253//4
f 105//4 253//4 104//4
f 251//4 236//4 235//4
f 251//4 235//4 237//4
f 241//4 238//4 229//4
f 14//11 215//11 213//11
f 89//9 152//9 187//9
f 146//1 83//1 88//1
f 139//11 83//11 146//11
f 149//8 85//8 72//8
f 147//8 89//8 84//8
f 71//1 86//1 148//1
f 149//2 148//2 86//2
f 149//2 86//2 85//2
f 152//8 89//8 147//8
f 87//6 150//6 161//6
f 153//24 150//24 90//24
f 221//25 215//25 316//25
f 146//1 88//1 151//1
f 313//23 209//23 323//23
f 323//8 291//8 313//8
f 313//1 323//1 214//1
f 313//11 203//11 323//11
f 154//26 92//26 155//26
f 92//27 154//27 153//27
f 87//24 90//24 150//24
f 207//28 302//28 208//28
f 207//29 211//29 305//29
f 90//30 92//30 153//30
f 156//31 155//31 93//31
f 93//32 256//32 156//32
f 187//9 94//9 89//9
f 159//8 96//8 77//8
f 157//11 95//11 98//11
f 157//11 98//11 160//11
f 98//1 97//1 158//1
f 98//1 158//1 160//1
f 159//2 158//2 97//2
f 159//2 97//2 96//2
f 162//2 256//2 255//2
f 162//2 255//2 161//2
f 159//8 77//8 140//8
f 142//33 78//33 157//33
f 95//34 157//34 78//34
f 167//11 260//11 264//11
f 259//11 258//11 164//11
f 259//11 164//11 163//11
f 258//35 257//35 165//35
f 258//35 165//35 164//35
f 261//2 166//2 168//2
f 261//2 168//2 262//2
f 167//8 166//8 261//8
f 167//8 261//8 260//8
f 264//11 169//11 167//11
f 263//36 180//36 169//36
f 264//37 263//37 169//37
f 170//8 267//8 171//8
f 266//8 171//8 267//8
f 266//11 265//11 172//11
f 266//11 172//11 171//11
f 271//2 68//2 177//2
f 130//2 177//2 68//2
f 268//2 173//2 165//2
f 268//2 165//2 257//2
f 268//8 259//8 173//8
f 163//8 173//8 259//8
f 175//11 269//11 273//11
f 67//11 272//11 176//11
f 175//8 174//8 270//8
f 175//8 270//8 269//8
f 272//35 271//35 176//35
f 271//38 177//38 176//38
f 179//1 273//1 274//1
f 179//1 274//1 178//1
f 174//2 178//2 274//2
f 174//2 274//2 270//2
f 273//11 179//11 175//11
f 275//8 262//8 181//8
f 168//8 181//8 262//8
f 181//2 180//2 263//2
f 181//2 263//2 275//2
f 188//8 325//8 182//8
f 187//39 185//39 324//39
f 185//1 184//1 324//1
f 185//11 324//11 325//11
f 185//11 325//11 188//11
f 325//1 186//1 188//1
f 277//8 182//8 327//8
f 325//8 327//8 182//8
f 280//2 184//2 183//2
f 265//40 183//40 172//40
f 84//41 267//41 147//41
f 147//41 267//41 170//41
f 324//8 204//8 326//8
f 94//42 187//42 326//42
f 324//39 326//39 187//39
f 326//11 327//11 325//11
f 326//11 325//11 324//11
f 327//1 186//1 325//1
f 278//8 277//8 327//8
f 188//2 193//2 325//2
f 280//1 326//1 184//1
f 204//8 299//8 326//8
f 300//1 205//1 327//1
f 326//43 276//43 94//43
f 278//2 327//2 279//2
f 325//2 279//2 327//2
f 276//11 278//11 327//11
f 276//11 327//11 326//11
f 278//1 300//1 327//1
f 183//2 281//2 280//2
f 183//40 265//40 281//40
f 326//1 280//1 276//1
f 324//1 184//1 326//1
f 277//11 189//11 182//11
f 193//8 206//8 313//8
f 288//44 195//44 194//44
f 219//45 315//45 220//45
f 315//46 314//46 220//46
f 218//47 307//47 212//47
f 312//48 216//48 314//48
f 220//49 314//49 216//49
f 311//50 218//50 217//50
f 218//51 311//51 307//51
f 217//52 216//52 312//52
f 323//53 209//53 304//53
f 323//54 304//54 301//54
f 301//8 291//8 323//8
f 301//1 309//1 323//1
f 297//11 301//11 323//11
f 303//55 304//55 208//55
f 306//56 210//56 292//56
f 303//57 208//57 302//57
f 282//11 189//11 277//11
f 207//58 305//58 302//58
f 189//59 282//59 284//59
f 194//60 190//60 287//60
f 209//61 208//61 304//61
f 199//62 295//62 200//62
f 294//63 201//63 200//63
f 197//64 201//64 293//64
f 294//65 293//65 201//65
f 305//66 211//66 307//66
f 211//67 212//67 307//67
f 214//1 323//1 309//1
f 309//2 298//2 214//2
f 215//11 14//11 310//11
f 284//68 191//68 189//68
f 283//69 287//69 190//69
f 284//70 192//70 191//70
f 285//71 283//71 192//71
f 190//72 192//72 283//72
f 286//2 325//2 193//2
f 193//8 313//8 286//8
f 291//8 286//8 313//8
f 296//73 199//73 196//73
f 215//25 310//25 316//25
f 312//74 311//74 217//74
f 194//75 287//75 288//75
f 290//76 195//76 288//76
f 196//77 195//77 290//77
f 284//78 285//78 192//78
f 325//2 286//2 279//2
f 320//79 315//79 219//79
f 14//8 223//8 308//8
f 223//8 14//8 213//8
f 317//8 222//8 6//8
f 317//8 6//8 5//8
f 317//11 318//11 222//11
f 196//80 290//80 289//80
f 223//2 221//2 316//2
f 223//2 316//2 308//2
f 306//11 321//11 210//11
f 226//11 210//11 321//11
f 225//11 319//11 3//11
f 225//11 3//11 2//11
f 318//11 224//11 222//11
f 224//8 318//8 319//8
f 224//8 319//8 225//8
f 227//79 320//79 219//79
f 321//1 320//1 227//1
f 321//1 227//1 226//1
f 296//81 295//81 199//81
f 295//82 294//82 200//82
f 198//83 197//83 292//83
f 293//84 292//84 197//84
f 196//85 289//85 296//85
f 198//86 292//86 210//86
